<?xml version="1.0" standalone="no"?>
<!DOCTYPE svg PUBLIC "-//W3C//DTD SVG 20010904//EN"
 "http://www.w3.org/TR/2001/REC-SVG-20010904/DTD/svg10.dtd">
<svg version="1.0" xmlns="http://www.w3.org/2000/svg"
 width="3000.000000pt" height="3000.000000pt" viewBox="0 0 3000.000000 3000.000000"
 preserveAspectRatio="xMidYMid meet">

<g transform="translate(0.000000,3000.000000) scale(0.100000,-0.100000)"
fill="#000000" stroke="none">
<path d="M14635 25114 c-687 -34 -1243 -107 -1850 -240 -1551 -341 -3058
-1072 -4285 -2078 -983 -806 -1776 -1742 -2415 -2851 -119 -207 -366 -693
-460 -905 -501 -1139 -777 -2260 -867 -3525 -17 -237 -17 -1023 0 -1260 63
-885 211 -1669 464 -2462 34 -106 64 -193 67 -193 3 1 296 552 651 1225 l645
1225 1107 0 1108 0 -63 -118 c-34 -65 -201 -382 -372 -705 l-310 -586 -291 -3
-291 -3 203 -730 c112 -401 204 -731 204 -733 0 -1 -131 -1 -291 0 l-291 3
-64 230 c-36 127 -92 328 -126 448 l-60 217 -452 0 -451 0 -240 -450 -240
-449 -109 -1 -108 0 6 -24 c10 -40 132 -328 218 -516 790 -1720 2040 -3185
3616 -4239 1109 -742 2361 -1265 3662 -1530 621 -126 1149 -186 1780 -201 614
-15 1031 3 1540 65 1451 179 2810 646 4065 1395 1438 860 2659 2082 3529 3532
152 254 240 417 391 723 1072 2171 1336 4629 749 6976 -89 357 -238 842 -333
1083 -11 29 -25 4 -369 -652 l-357 -682 -415 -2 -415 -3 175 -180 c96 -99 277
-287 403 -417 l227 -236 -449 -848 -449 -849 -431 -3 c-237 -1 -431 0 -431 3
0 3 200 383 445 846 245 462 445 842 445 845 0 2 -332 4 -738 4 l-738 0 -304
-577 c-168 -318 -368 -699 -447 -848 l-142 -270 -456 -3 -456 -2 24 42 c14 24
115 214 225 423 110 209 297 565 417 790 119 226 237 449 261 498 l44 87 -32
-13 c-23 -9 -35 -23 -42 -45 -5 -18 -13 -32 -17 -32 -4 0 -16 -16 -25 -35 -9
-19 -22 -35 -29 -35 -7 0 -15 -6 -18 -14 -3 -7 -25 -16 -50 -19 -52 -7 -171
-46 -175 -58 -2 -4 -9 -6 -17 -3 -15 6 -47 -35 -38 -49 6 -9 -57 -4 -74 6 -6
4 -18 36 -28 72 -9 36 -21 65 -26 65 -4 0 -15 12 -24 28 -14 24 -22 27 -54 24
-63 -6 -62 42 0 51 21 3 24 10 27 53 4 57 -25 177 -42 171 -6 -2 -18 -17 -27
-35 -9 -17 -19 -29 -22 -25 -4 3 -10 -3 -14 -13 -13 -37 -27 -34 -45 9 -25 62
-23 76 16 92 37 16 47 40 45 110 -5 121 0 216 11 230 7 8 29 15 49 15 24 0 42
7 53 19 9 11 14 21 12 23 -2 3 7 10 20 17 13 7 28 23 34 36 9 19 20 23 82 27
46 4 75 11 81 19 5 8 9 10 9 5 0 -5 6 -4 13 1 6 6 43 20 80 33 56 18 70 20 83
9 13 -10 17 -10 24 0 4 8 13 10 20 6 9 -5 11 -4 6 3 -4 7 4 14 21 18 15 3 63
17 105 31 43 13 82 22 87 18 6 -3 17 5 26 19 11 16 22 23 32 19 10 -4 14 -2 9
5 -6 10 22 25 40 21 5 -1 21 3 37 9 22 10 27 18 27 47 0 20 -7 49 -14 64 -8
15 -18 51 -22 80 l-7 53 29 -4 c25 -3 29 -8 32 -36 3 -25 12 -38 42 -57 38
-24 39 -25 25 -52 -16 -31 -4 -47 28 -37 11 3 17 0 17 -10 0 -8 9 -18 20 -21
11 -3 21 -11 21 -16 1 -5 2 -15 3 -21 0 -7 8 -14 17 -16 12 -2 35 31 84 125
37 70 102 193 145 273 112 209 362 684 399 758 l32 62 -26 -4 c-40 -7 -95 -29
-95 -38 0 -4 -7 -8 -16 -8 -8 0 -12 -4 -9 -10 3 -5 -1 -10 -9 -10 -23 0 -40
-39 -42 -100 -2 -80 -2 -79 -29 -86 -14 -3 -25 -10 -25 -15 0 -5 -9 -9 -21 -9
-15 0 -19 -5 -15 -15 3 -8 1 -15 -4 -15 -6 0 -10 -7 -10 -15 0 -10 -11 -16
-32 -17 -18 -1 -40 -2 -48 -4 -8 -1 -20 -2 -27 -3 -7 -1 -24 -25 -38 -55 -23
-48 -25 -60 -16 -103 5 -26 9 -38 10 -26 0 12 6 25 11 28 6 4 8 11 5 16 -4 5
1 9 9 9 9 0 16 -7 16 -15 0 -8 9 -15 20 -15 11 0 20 -3 21 -7 0 -5 2 -19 3
-31 4 -34 -35 -88 -60 -84 -14 2 -24 -6 -32 -23 -6 -14 -23 -30 -37 -37 -14
-6 -25 -17 -25 -25 0 -8 -12 -13 -30 -13 -16 0 -30 -3 -30 -7 0 -17 -66 -52
-87 -47 -27 7 -34 33 -16 55 12 14 11 19 -4 34 -16 17 -16 17 7 11 14 -3 19
-3 13 0 -7 3 -13 12 -13 20 0 8 -4 14 -8 14 -12 0 -52 -39 -52 -50 0 -5 -7 -7
-15 -4 -8 4 -23 3 -32 -1 -10 -5 -24 -9 -31 -11 -8 -1 -22 -10 -31 -18 -10 -9
-23 -16 -29 -16 -7 0 -12 -4 -12 -10 0 -5 -11 -20 -25 -34 -14 -14 -25 -32
-25 -40 0 -21 -13 -27 -70 -31 -62 -6 -120 -29 -120 -49 0 -9 -22 -28 -50 -44
-27 -15 -54 -37 -61 -48 -6 -12 -23 -28 -38 -35 -14 -8 -30 -20 -34 -27 -5 -7
-12 -10 -17 -7 -4 3 -11 -7 -14 -21 -5 -19 -11 -24 -26 -19 -13 4 -20 0 -25
-14 -9 -30 -61 -65 -147 -100 -16 -6 -28 -15 -28 -21 0 -5 -8 -10 -18 -10 -11
0 -24 -11 -30 -25 -6 -13 -25 -31 -42 -40 -17 -9 -30 -23 -30 -35 0 -10 -5
-22 -11 -25 -6 -5 -4 -12 8 -21 12 -9 13 -13 5 -14 -7 0 -20 -7 -29 -15 -8 -8
-19 -13 -24 -10 -5 4 -9 2 -9 -3 0 -6 -8 -8 -19 -5 -13 3 -20 -2 -24 -17 -4
-17 -12 -21 -36 -18 -16 2 -38 13 -48 24 -13 15 -24 19 -38 14 -11 -4 -32 -6
-46 -3 -15 3 -30 0 -33 -6 -4 -5 -13 -8 -20 -5 -9 3 -76 -119 -210 -381 l-198
-385 -531 2 -532 3 -2 409 c-1 225 -4 410 -6 412 -2 2 -109 -198 -237 -444
-129 -246 -325 -620 -436 -832 l-202 -385 31 -3 c18 -2 105 -1 193 3 l161 7
-14 47 c-8 25 -12 57 -9 71 3 14 1 32 -3 39 -5 7 -4 34 1 59 5 28 5 48 -1 50
-11 4 -2 42 10 42 5 0 8 3 7 8 -3 10 21 53 44 78 17 19 24 37 27 67 1 4 8 7
16 7 8 0 19 9 25 20 6 11 34 38 61 60 28 22 44 40 35 40 -9 0 -16 6 -16 14 0
29 300 58 318 30 4 -6 15 -10 25 -8 22 3 28 -10 66 -156 43 -163 51 -210 60
-343 5 -65 13 -123 19 -129 7 -7 209 -9 652 -6 620 4 641 3 636 -15 -3 -13 0
-17 12 -15 12 2 17 14 18 40 2 43 24 93 42 93 7 0 16 5 20 12 4 6 20 14 36 17
15 3 40 13 55 22 23 16 37 21 79 26 6 1 12 5 12 8 0 4 15 8 33 7 17 0 40 4 49
8 13 5 21 0 29 -18 17 -38 0 -78 -40 -92 -18 -6 -37 -18 -42 -28 -6 -9 -19
-17 -29 -17 -10 0 -23 -6 -27 -13 -4 -7 -34 -21 -65 -31 -91 -28 -88 -48 7
-62 46 -7 48 -8 20 -15 -24 -5 -19 -7 25 -8 l55 -1 -29 -23 c-16 -13 -55 -34
-87 -47 l-58 -23 -86 20 -86 20 -32 -56 c-18 -31 -105 -192 -193 -358 l-159
-303 -1628 0 -1628 0 40 73 c22 39 365 689 764 1442 398 754 864 1634 1035
1957 171 323 327 618 347 657 l35 71 220 2 220 3 -111 113 c-62 62 -125 120
-141 128 -16 8 -39 31 -50 50 -11 19 -26 34 -34 34 -20 0 -50 68 -35 83 6 6
11 7 11 3 0 -5 14 5 30 22 17 18 30 37 30 42 0 6 5 8 12 4 8 -5 9 -2 5 9 -5
13 8 26 48 54 54 35 59 42 56 75 -1 9 9 34 22 55 27 42 30 104 9 156 -16 37
-16 37 12 37 14 0 28 5 31 11 4 5 17 9 30 7 27 -3 85 36 85 57 0 7 10 17 23
20 24 8 117 99 117 115 0 6 -15 11 -32 12 -18 0 -40 2 -48 3 -8 0 -27 -7 -42
-17 -35 -24 -46 -23 -59 6 -10 22 -15 24 -69 19 -32 -3 -66 -3 -74 0 -14 6
-13 10 6 32 19 22 29 25 59 21 31 -4 38 -1 49 19 15 27 55 38 71 19 16 -19 27
-17 34 6 5 14 14 20 28 18 18 -2 22 2 22 22 0 14 -5 24 -12 23 -7 -2 -10 3 -7
11 3 8 1 30 -4 50 -9 31 -7 38 14 61 13 14 24 29 24 33 0 4 19 16 42 27 34 16
44 27 51 55 10 40 25 62 37 55 5 -3 11 -1 15 5 4 6 11 8 16 5 5 -4 9 -2 9 3 0
6 19 8 43 6 74 -6 92 -5 115 9 19 13 14 61 -8 75 -11 7 -20 19 -20 26 0 21 21
31 32 15 7 -12 9 -11 7 1 -4 39 2 50 26 50 32 0 36 -39 5 -47 -11 -3 -20 -12
-20 -21 0 -12 3 -13 11 -5 14 14 43 -13 56 -53 12 -38 58 -45 91 -14 33 31 26
51 -26 77 -2 1 -5 12 -7 25 -1 12 -4 28 -5 33 -2 6 1 19 5 29 6 13 3 23 -10
32 -25 19 -38 7 -32 -30 3 -17 3 -25 0 -18 -2 6 -10 12 -17 12 -25 0 -66 26
-66 41 0 12 13 18 45 22 24 4 51 4 58 1 8 -3 17 1 20 9 7 18 -2 57 -13 57 -18
0 -17 29 1 49 11 12 17 21 13 21 -3 0 0 7 7 17 11 13 11 17 1 21 -10 3 -10 7
-1 18 9 11 9 18 1 26 -18 18 -14 28 8 28 11 0 20 -5 20 -11 0 -8 13 -9 39 -5
34 5 42 3 55 -16 9 -12 16 -32 16 -44 0 -26 33 -57 57 -52 39 7 51 88 19 128
-6 8 -29 25 -51 36 -29 16 -42 31 -49 58 -6 21 -13 37 -16 36 -19 -5 -36 15
-36 40 0 17 2 30 5 30 13 0 27 -16 39 -43 12 -28 16 -29 83 -11 10 3 20 -6 28
-22 7 -17 17 -24 27 -20 8 3 17 -1 20 -9 9 -21 42 -18 49 4 12 39 14 61 4 61
-6 0 -8 4 -5 9 3 4 -10 17 -29 27 -19 10 -35 24 -35 30 0 7 -8 15 -17 18 -12
5 -14 9 -5 18 7 7 12 20 12 30 0 10 12 25 27 35 29 19 53 25 53 13 0 -15 32
-20 45 -6 24 23 30 91 11 118 -9 13 -20 22 -24 20 -4 -1 -8 5 -9 15 -4 26 39
53 102 63 30 5 63 14 74 19 11 6 29 11 40 11 19 0 20 5 16 50 -3 28 -1 50 4
50 5 0 8 22 8 50 -2 34 -6 50 -15 50 -7 0 -10 5 -7 10 3 6 -1 13 -9 16 -9 3
-16 12 -16 18 0 7 -11 23 -24 35 -24 23 -25 41 -3 68 7 9 14 10 30 2 16 -9 22
-8 29 5 5 9 20 16 34 16 19 0 26 6 31 30 6 34 1 33 111 30 52 -1 82 3 82 9 0
6 11 11 25 11 13 0 29 8 34 18 8 14 11 14 12 2 1 -8 1 -18 1 -21 -1 -3 5 -6
12 -6 7 0 13 6 13 13 0 7 -4 11 -9 8 -14 -9 -9 26 13 76 16 37 27 49 47 53 15
3 32 2 37 -3 6 -4 21 -10 35 -12 17 -2 26 -10 28 -25 3 -24 21 -33 18 -10 0 6
3 13 8 15 6 1 11 -10 13 -25 5 -33 58 -87 88 -89 32 -3 45 15 45 60 0 53 11
68 57 81 35 10 38 14 44 52 4 30 14 48 39 69 18 16 41 47 52 70 16 37 23 43
58 49 21 4 44 13 50 20 16 19 39 113 43 178 1 9 5 17 9 17 4 0 8 5 8 11 0 5
-4 7 -10 4 -6 -3 -7 1 -4 9 3 9 12 16 20 16 13 0 19 13 15 34 -5 27 13 42 66
55 54 12 58 12 74 -8 10 -12 19 -27 22 -34 3 -11 11 -9 68 21 4 1 9 -9 13 -23
5 -20 13 -25 37 -25 28 0 88 -24 99 -40 10 -14 49 -30 74 -30 19 0 34 -11 54
-39 15 -22 38 -44 51 -51 13 -6 32 -21 42 -34 10 -13 30 -26 43 -30 14 -3 26
-16 30 -29 3 -13 17 -29 31 -35 14 -6 25 -16 25 -22 0 -5 17 -20 38 -34 20
-13 73 -60 117 -105 44 -44 85 -81 92 -81 6 0 20 -15 32 -32 11 -18 39 -49 62
-68 23 -19 50 -44 60 -55 20 -21 45 -47 61 -63 6 -5 39 -40 74 -76 36 -36 68
-66 73 -66 5 0 16 -16 25 -35 9 -19 30 -42 45 -50 24 -12 29 -23 35 -65 6 -43
4 -55 -15 -78 l-21 -27 32 -3 c20 -2 39 3 50 13 31 28 40 10 25 -47 -17 -61
-39 -88 -57 -70 -16 16 -58 15 -58 0 0 -17 24 -86 33 -94 4 -4 7 -21 7 -37 l0
-30 -22 20 c-13 12 -32 23 -42 25 -20 3 -28 16 -43 63 -13 46 -27 36 -37 -27
-7 -51 -11 -58 -31 -58 -12 0 -28 7 -35 15 -7 8 -16 15 -20 15 -10 0 -28 -66
-34 -120 -3 -25 -5 -46 -5 -47 -2 -10 -65 0 -78 12 -8 8 -19 13 -24 10 -14 -9
-11 -65 4 -67 6 0 19 -1 27 -2 8 -1 16 -10 18 -21 6 -38 37 -86 60 -92 12 -3
25 -16 28 -29 3 -13 14 -24 23 -24 9 -1 34 -7 56 -15 39 -14 41 -14 58 9 16
22 23 24 70 20 28 -3 58 -7 64 -9 7 -2 17 4 22 14 13 24 -15 86 -46 100 -35
16 -29 35 20 60 27 14 36 44 17 56 -15 9 -12 41 5 55 12 10 18 10 30 0 22 -18
19 -76 -4 -92 -11 -8 -18 -22 -16 -34 2 -10 4 -22 4 -26 2 -19 31 -6 51 22 25
36 36 37 66 9 26 -24 41 -19 112 38 33 27 49 33 67 29 14 -4 25 -11 25 -16 0
-5 17 -14 38 -20 42 -12 100 -81 128 -150 11 -26 24 -42 39 -46 16 -4 30 -21
44 -54 12 -27 35 -64 51 -82 17 -18 30 -41 30 -51 0 -10 15 -33 33 -51 70 -71
97 -111 165 -253 17 -34 41 -69 55 -77 13 -9 30 -34 37 -56 7 -22 21 -48 32
-59 10 -11 18 -23 18 -26 0 -3 15 -27 33 -53 67 -100 118 -187 142 -242 10
-25 33 -59 52 -77 18 -18 33 -38 33 -46 0 -15 29 -79 40 -87 4 -3 10 -18 14
-35 4 -16 28 -72 53 -123 41 -86 45 -98 39 -146 -8 -58 16 -187 38 -209 33
-33 59 -197 41 -251 -7 -20 -10 -38 -7 -41 8 -7 562 -6 562 2 0 19 -177 410
-285 628 -479 972 -1086 1832 -1835 2599 -821 843 -1710 1496 -2742 2017
-1254 632 -2550 985 -3993 1089 -147 11 -913 21 -1050 14z m1778 -231 c-7 -2
-13 -11 -13 -19 0 -8 6 -14 13 -14 8 0 7 -4 -3 -10 -12 -8 -12 -10 -1 -10 8 0
12 -2 9 -5 -12 -12 -38 9 -38 29 0 27 8 36 29 35 10 0 12 -2 4 -6z m2 -94 c-4
-5 -13 -9 -21 -9 -12 0 -12 2 -2 14 14 15 32 11 23 -5z m-45 -85 c0 -8 -4 -12
-10 -9 -5 3 -10 10 -10 16 0 5 5 9 10 9 6 0 10 -7 10 -16z m1748 -140 c2 -19
-6 -48 -17 -70 -26 -49 -28 -93 -3 -95 9 -1 24 -3 32 -4 8 -1 21 -3 28 -4 6 0
12 -10 12 -20 0 -20 -31 -37 -60 -33 -8 1 -10 -1 -5 -3 6 -3 9 -21 7 -39 -3
-26 -10 -36 -28 -40 -14 -4 -24 -14 -24 -24 0 -9 -3 -27 -6 -39 -5 -17 -2 -23
10 -23 10 0 16 9 16 24 0 31 10 56 22 56 5 0 8 -20 7 -45 -2 -25 -6 -45 -9
-45 -4 0 -6 -22 -6 -49 1 -42 3 -48 19 -42 10 4 24 18 30 31 7 14 20 26 30 28
20 4 22 -22 8 -78 -5 -19 -12 -66 -15 -105 -8 -103 -16 -133 -41 -149 -13 -9
-25 -30 -29 -50 -4 -19 -11 -36 -16 -38 -5 -2 -11 -12 -13 -23 -4 -30 -23 -58
-40 -61 -8 -1 -24 -5 -36 -9 -19 -6 -20 -3 -15 38 2 25 7 56 10 68 4 13 9 47
13 74 4 28 15 68 24 90 9 22 18 57 20 78 5 40 -14 198 -34 280 -11 46 -29 73
-29 44 0 -20 -45 -48 -64 -41 -18 7 -23 74 -6 74 6 0 3 11 -6 25 -9 14 -12 29
-8 37 5 7 9 18 10 23 6 60 31 101 56 92 20 -7 48 12 42 28 -4 8 -14 15 -24 15
-30 0 -32 16 -5 34 33 21 41 20 49 -6 7 -23 7 -23 29 5 29 38 61 33 65 -9z
m-6722 -320 c-3 -8 -15 -14 -27 -14 -20 0 -21 -3 -16 -51 4 -28 2 -73 -3 -101
-7 -36 -7 -55 1 -64 9 -10 9 -14 0 -14 -6 0 -11 -17 -11 -41 0 -36 2 -40 15
-29 13 10 15 9 15 -9 0 -24 0 -24 -33 -12 -22 9 -25 15 -23 61 1 28 -1 53 -4
55 -9 5 -5 155 4 176 4 9 6 20 5 25 -1 5 -1 15 0 23 1 11 4 11 18 0 15 -12 16
-12 8 1 -8 13 -7 13 8 1 15 -12 21 -9 18 12 0 4 4 7 9 7 6 0 9 3 9 8 -3 20 4
24 8 4 3 -13 2 -30 -1 -38z m-56 -363 c0 -5 10 -11 22 -13 29 -4 35 -28 9 -35
-27 -7 -27 -17 1 -45 14 -14 18 -23 10 -26 -7 -2 -12 -17 -12 -33 0 -16 -4
-29 -10 -29 -5 0 -10 -7 -10 -15 0 -10 -10 -15 -30 -15 -20 0 -30 -5 -30 -15
0 -8 -5 -15 -10 -15 -6 0 -10 -8 -8 -17 2 -14 -3 -17 -21 -15 -35 4 -37 9 -19
40 10 16 15 47 14 79 -1 50 0 53 27 59 31 6 47 36 43 78 -2 17 2 26 10 26 8 0
14 -4 14 -9z m110 -31 c13 -25 5 -40 -21 -40 -27 0 -24 20 4 21 l22 2 -22 4
c-23 4 -29 14 -16 26 11 12 22 8 33 -13z m-120 -225 c-12 -15 -30 -12 -30 6 0
5 10 9 21 9 18 0 19 -2 9 -15z m6622 -82 c0 -22 -5 -51 -12 -63 l-13 -24 -18
23 c-24 30 -24 52 1 81 11 13 20 28 20 34 0 7 3 7 11 -1 5 -5 10 -28 11 -50z
m-6762 -62 c0 -10 -7 -21 -15 -25 -13 -5 -15 10 -6 42 1 1 6 2 11 2 6 0 10 -9
10 -19z m4950 -307 c20 -23 -15 -55 -52 -47 -23 4 -28 11 -28 34 0 26 3 29 34
29 18 0 39 -7 46 -16z m-63 -326 c-3 -7 -5 -2 -5 12 0 14 2 19 5 13 2 -7 2
-19 0 -25z m-3569 -51 c2 -20 9 -27 25 -28 22 -2 22 -2 -1 -6 -12 -2 -20 -9
-17 -14 4 -5 -2 -9 -11 -9 -16 0 -15 -2 2 -22 10 -12 14 -18 8 -15 -18 10 -26
-36 -9 -52 12 -12 10 -18 -16 -42 -21 -20 -29 -37 -30 -66 -1 -21 -3 -45 -4
-53 -1 -8 -3 -21 -4 -28 0 -7 -15 -18 -31 -24 -24 -8 -28 -13 -19 -24 8 -10 7
-17 -5 -29 -9 -9 -16 -32 -16 -50 0 -19 -4 -44 -9 -57 -4 -13 -5 -32 0 -43 5
-13 8 -15 9 -5 0 10 11 4 30 -17 17 -19 40 -33 52 -33 23 0 37 -15 70 -80 29
-55 24 -77 -19 -89 -21 -6 -52 -11 -69 -11 -16 0 -39 -6 -50 -14 -19 -14 -19
-15 4 -45 12 -17 22 -37 22 -46 0 -9 8 -27 17 -41 14 -23 15 -34 5 -87 -7 -34
-14 -71 -15 -81 -2 -11 -8 -21 -14 -23 -7 -3 -9 4 -6 16 5 18 1 20 -33 17 -29
-3 -40 -9 -43 -22 -4 -25 -20 -44 -36 -44 -31 0 -41 101 -13 137 11 14 0 102
-14 120 -6 7 -10 28 -10 48 0 19 -4 35 -10 35 -5 0 -6 5 -3 10 3 6 1 10 -4 10
-6 0 -11 -8 -11 -17 0 -13 -3 -14 -8 -5 -12 17 -46 -22 -62 -70 -8 -26 -17
-38 -30 -38 -36 0 -50 -12 -50 -41 0 -16 5 -29 10 -29 6 0 10 -5 10 -11 0 -14
-26 -40 -33 -32 -3 3 -23 -8 -44 -24 -35 -27 -41 -29 -88 -20 -27 5 -58 8 -67
8 -19 0 -19 1 -23 38 -1 13 -13 32 -25 41 -22 17 -22 18 -4 28 10 6 15 12 9
12 -5 0 -3 5 5 10 13 8 13 10 -2 10 -13 0 -17 8 -16 33 1 18 -4 43 -11 55 -17
31 1 58 43 66 27 5 35 12 40 36 3 17 12 30 20 30 15 0 49 45 53 73 4 23 33 67
44 67 5 0 9 7 9 15 0 8 5 15 10 15 6 0 10 20 10 44 0 44 33 118 72 162 10 11
19 37 20 58 1 26 5 35 15 32 7 -3 13 -1 13 4 0 6 9 10 20 10 11 0 20 4 20 9 0
6 21 13 46 17 40 6 47 11 57 38 6 17 10 35 9 39 -1 5 7 11 18 14 12 3 23 18
28 37 7 25 14 32 38 34 34 4 64 28 64 52 0 44 53 51 58 7z m8532 -32 c0 -25
-23 -35 -35 -15 -3 5 -26 8 -50 5 -33 -3 -43 -1 -39 8 2 7 19 14 36 15 18 2
34 5 37 7 2 3 15 5 28 5 18 0 23 -5 23 -25z m-265 -35 c-16 -7 -17 -9 -3 -9
28 -1 31 -21 4 -21 -19 0 -26 5 -26 20 0 14 6 20 23 19 21 0 21 -1 2 -9z m5
-54 c0 -2 -9 -6 -20 -9 -11 -3 -18 -1 -14 4 5 9 34 13 34 5z m160 -40 c0 -33
-15 -49 -39 -41 -12 3 -19 11 -16 16 4 5 -3 9 -15 9 -11 0 -23 7 -27 16 -7 19
18 38 29 21 5 -8 9 -6 13 5 10 24 55 2 55 -26z m-4893 2 c-3 -8 -6 -5 -6 6 -1
11 2 17 5 13 3 -3 4 -12 1 -19z m5602 -41 c13 -16 5 -27 -21 -27 -20 0 -21 1
-12 24 7 20 18 20 33 3z m-5608 -39 c1 -13 1 -27 0 -31 -1 -4 6 -10 14 -13 10
-4 12 -10 7 -18 -5 -6 -12 -27 -16 -47 -7 -42 -28 -64 -51 -55 -19 7 -19 48
-1 84 7 15 16 44 20 65 8 41 25 50 27 15z m4766 -17 c16 -25 -8 -61 -36 -54
-28 7 -34 33 -15 54 22 24 36 24 51 0z m-10337 -162 c0 -5 6 -8 13 -6 7 1 13
-11 15 -28 2 -16 12 -36 22 -45 20 -17 53 -100 40 -100 -14 0 -4 -121 11 -131
8 -5 10 -9 5 -9 -5 0 -3 -7 4 -15 10 -13 9 -15 -9 -15 -17 0 -22 -5 -20 -22 2
-13 0 -29 -4 -35 -5 -8 -3 -13 3 -13 6 0 8 -4 5 -10 -3 -5 3 -15 15 -22 11 -7
20 -20 20 -28 0 -12 2 -12 9 -1 5 8 11 9 15 3 4 -6 -2 -15 -11 -21 -14 -8 -9
-10 25 -9 47 0 54 -4 59 -30 5 -31 -16 -194 -27 -207 -6 -8 -11 -22 -10 -32 4
-30 0 -44 -8 -39 -10 6 -10 -35 0 -50 5 -7 -6 -15 -27 -22 -42 -12 -95 3 -95
28 0 9 -11 27 -24 39 -18 17 -25 34 -25 60 0 20 -2 49 -4 65 -3 16 2 45 10 64
8 19 12 40 9 48 -3 7 2 18 11 23 15 8 15 10 0 26 -9 9 -17 29 -17 45 0 16 -4
32 -10 35 -5 3 -10 28 -10 56 0 27 -4 49 -9 49 -23 0 -29 217 -10 352 2 16 29
14 29 -3z m5617 -95 c3 -8 12 -13 20 -9 11 4 14 0 10 -14 -3 -11 1 -25 9 -32
8 -6 14 -21 14 -33 0 -23 -22 -92 -33 -102 -4 -4 -7 -24 -7 -45 0 -21 -7 -44
-15 -52 -8 -9 -27 -62 -41 -119 -15 -57 -33 -110 -40 -119 -8 -8 -14 -20 -14
-26 0 -6 -12 -22 -27 -37 l-26 -27 -29 28 c-24 23 -27 32 -22 62 4 20 10 41
15 47 5 6 11 26 13 45 3 19 9 48 15 66 5 18 7 41 4 52 -4 15 2 24 20 32 15 7
27 22 31 40 3 16 17 53 30 82 13 28 27 77 31 107 4 30 9 58 12 63 7 12 23 8
30 -9z m-713 -26 c-3 -18 -11 -49 -17 -68 -6 -19 -10 -73 -9 -119 1 -45 0 -87
-3 -91 -3 -5 -22 -2 -41 6 -20 8 -39 13 -42 10 -3 -3 -1 -6 5 -6 13 0 12 -32
-2 -42 -6 -4 -2 -13 9 -21 16 -12 17 -16 5 -23 -8 -5 -18 -9 -24 -9 -5 0 -11
-10 -13 -22 -2 -13 2 -23 8 -23 7 0 7 -6 -1 -22 -7 -12 -11 -36 -11 -53 2 -38
-39 -126 -55 -120 -7 2 -16 -2 -20 -9 -5 -8 -26 -15 -48 -17 -22 -1 -50 -8
-62 -16 -12 -7 -29 -13 -36 -13 -14 0 -77 -66 -77 -81 0 -4 -17 -16 -37 -25
-21 -10 -49 -30 -62 -46 -18 -23 -26 -26 -37 -17 -18 15 -18 33 0 48 8 6 16
26 19 44 11 63 20 92 35 109 8 10 15 27 16 39 1 14 13 27 35 38 20 9 36 25 37
36 6 43 41 128 59 141 14 11 19 24 16 53 -2 33 2 42 21 52 13 6 27 18 31 26 7
12 78 53 92 53 3 0 5 -9 5 -19 0 -55 44 -15 46 40 1 41 47 109 73 109 21 0 73
48 66 61 -7 11 2 29 15 29 5 0 7 -15 4 -32z m-5378 -361 c8 3 26 -8 42 -25 15
-16 37 -32 49 -36 31 -10 67 -71 59 -101 -5 -20 -2 -24 22 -30 15 -3 41 -17
56 -30 16 -14 35 -25 41 -25 15 0 45 -43 45 -64 0 -22 39 -94 59 -109 19 -15
54 -78 47 -85 -3 -3 -19 -5 -35 -6 -34 -1 -28 -13 8 -18 45 -6 37 -28 -10 -28
-49 0 -148 42 -114 48 38 8 47 55 18 98 -14 22 -14 27 -2 34 25 16 -1 24 -88
27 -89 3 -112 14 -113 55 0 9 -7 24 -16 33 -9 9 -17 33 -18 53 -1 25 -9 46
-26 63 -40 41 -50 66 -49 116 0 27 3 43 5 36 3 -7 12 -9 20 -6z m734 -2 c0 -8
-4 -15 -10 -15 -5 0 -7 7 -4 15 4 8 8 15 10 15 2 0 4 -7 4 -15z m11560 1 c0
-16 -14 -36 -26 -36 -14 0 -19 22 -7 33 7 8 33 10 33 3z m-11401 -21 c23 7 28
-9 11 -35 -13 -21 -44 -1 -48 31 -2 17 0 20 6 10 6 -8 17 -11 31 -6z m11551
-40 c0 -17 -2 -18 -24 -9 -23 9 -20 24 4 24 11 0 20 -7 20 -15z m-8375 -235
c3 -5 1 -10 -4 -10 -6 0 -11 5 -11 10 0 6 2 10 4 10 3 0 8 -4 11 -10z m-25
-100 c0 -5 -4 -10 -10 -10 -5 0 -10 5 -10 10 0 6 5 10 10 10 6 0 10 -4 10 -10z
m-984 -151 c-5 -62 -20 -99 -40 -99 -10 0 -6 69 4 75 6 3 10 17 10 31 0 26 16
64 27 64 3 0 3 -32 -1 -71z m-2171 -106 c11 -7 16 -13 11 -13 -5 0 -4 -6 2
-12 9 -12 16 -50 13 -70 -1 -5 0 -10 2 -12 1 -2 -6 -12 -15 -22 -17 -19 -18
-22 -18 -49 0 -8 -8 -15 -18 -15 -19 0 -58 -39 -54 -54 2 -5 -4 -6 -12 -3 -8
3 -17 -1 -20 -9 -6 -15 -50 -38 -76 -38 -8 -1 -15 -8 -16 -16 -2 -35 -5 -40
-19 -40 -24 0 -18 46 9 63 23 15 32 42 41 117 7 61 17 105 27 117 5 7 6 18 2
25 -4 7 -4 10 0 6 9 -7 40 21 49 45 5 14 11 15 39 5 18 -6 42 -17 53 -25z
m-2041 -38 c-4 -8 -1 -15 5 -15 18 0 12 -20 -6 -21 -11 0 -13 -3 -6 -6 9 -3
10 -10 3 -24 -8 -15 -7 -19 4 -19 7 0 28 -13 45 -29 29 -27 36 -29 82 -24 45
5 49 4 43 -13 -4 -10 -4 -16 1 -12 10 9 62 -18 89 -47 12 -12 38 -30 59 -38
32 -14 37 -14 37 -1 0 20 9 18 30 -8 11 -13 17 -32 14 -43 -4 -16 -3 -17 5 -5
9 12 11 12 16 -2 4 -9 13 -14 20 -12 7 3 16 1 19 -5 4 -6 13 -8 21 -4 14 5 19
-6 16 -33 -1 -7 6 -14 14 -18 11 -4 14 -2 9 7 -4 6 3 2 15 -11 12 -12 27 -20
32 -16 6 3 13 -3 16 -15 7 -27 20 -27 28 -1 4 13 15 20 33 20 24 0 24 -1 8
-13 -16 -12 -17 -16 -5 -35 8 -12 22 -22 32 -22 10 0 16 -4 12 -9 -3 -5 5 -17
17 -25 12 -9 17 -16 10 -16 -6 0 -11 -5 -9 -12 1 -7 -2 -12 -8 -13 -23 -1 -55
-33 -49 -49 3 -9 10 -16 16 -16 5 0 6 -4 3 -10 -3 -5 1 -10 9 -10 23 0 20 -21
-3 -27 -12 -3 -17 -11 -14 -19 3 -8 9 -11 14 -8 18 11 93 -19 118 -47 14 -16
31 -29 38 -29 7 0 13 -4 13 -8 0 -5 17 -13 38 -18 20 -5 37 -13 37 -19 0 -5
10 -25 23 -42 13 -18 20 -33 15 -33 -4 0 -2 -4 6 -9 12 -8 12 -12 -2 -26 -10
-9 -17 -28 -17 -42 0 -20 4 -24 17 -18 10 3 46 1 80 -6 46 -9 63 -17 67 -32 3
-11 9 -16 16 -12 6 4 19 0 28 -8 9 -8 29 -17 44 -19 21 -4 29 -1 34 14 4 13
12 18 25 15 12 -3 19 0 19 9 0 8 5 14 11 14 6 0 10 -10 9 -22 -1 -13 -1 -26 0
-30 1 -5 3 -17 4 -28 0 -12 7 -25 15 -30 11 -6 12 -12 3 -22 -9 -11 -5 -19 19
-38 16 -14 33 -25 37 -26 4 0 14 -4 23 -8 9 -4 27 -8 41 -10 13 -1 29 -6 36
-10 7 -4 15 -5 20 -2 4 2 16 -2 26 -10 18 -12 18 -14 2 -20 -15 -6 -14 -10 11
-35 53 -53 62 -66 51 -77 -7 -7 -3 -12 11 -17 14 -4 21 -15 22 -33 l1 -27 9
25 c9 25 9 25 5 -2 -2 -16 2 -28 8 -28 6 0 3 -5 -6 -11 -26 -14 -22 -29 7 -29
14 0 25 -4 25 -10 0 -5 -5 -10 -11 -10 -5 0 -8 -4 -4 -9 3 -6 -7 -8 -22 -6
-16 2 -31 4 -35 4 -5 1 -9 11 -9 24 l-2 22 -4 -23 c-4 -18 -10 -22 -35 -20
-18 1 -33 -3 -36 -10 -6 -20 -19 -13 -27 15 -4 19 -9 23 -14 14 -5 -8 -17 -11
-30 -6 -12 3 -19 10 -16 15 7 11 -5 41 -15 35 -4 -2 -33 11 -65 30 -31 19 -61
35 -65 35 -17 0 -60 48 -60 67 0 37 -10 51 -31 46 -25 -7 -61 11 -78 39 -10
16 -10 19 1 13 7 -3 4 0 -7 9 -11 8 -26 20 -32 26 -13 10 -17 5 -14 -14 1 -5
-5 -4 -13 3 -16 14 -17 32 -2 42 14 11 -3 29 -28 29 -13 0 -33 9 -46 20 -26
22 -45 27 -34 8 4 -7 4 -10 0 -6 -4 3 -8 10 -9 15 -1 4 -17 22 -37 38 -20 17
-35 35 -33 41 5 15 -30 24 -94 24 -29 0 -53 5 -53 10 0 6 7 10 16 10 9 0 14 6
12 13 -3 7 -27 13 -61 15 -48 3 -60 7 -73 27 -9 14 -14 32 -10 40 6 16 -48 50
-64 40 -5 -3 -19 4 -30 15 -11 11 -25 18 -30 15 -6 -4 -17 1 -25 9 -18 18
-125 19 -125 2 0 -6 -9 -1 -20 9 -11 11 -20 32 -20 45 -1 67 3 113 7 98 4 -17
23 -26 23 -10 -1 20 -20 34 -39 29 -27 -7 -39 12 -18 28 27 19 20 34 -19 41
-24 4 -39 14 -46 30 -6 13 -15 21 -19 18 -5 -3 -6 2 -3 10 5 12 -1 16 -23 16
-26 0 -30 3 -30 31 0 17 -6 35 -14 39 -11 7 -10 10 3 15 10 4 21 4 25 2 14 -9
33 8 38 32 2 12 1 20 -3 17 -4 -2 -14 3 -22 12 -13 14 -12 15 3 9 14 -5 16 -3
9 10 -7 11 -5 21 5 31 12 12 12 16 1 23 -15 10 -73 11 -107 2 -21 -5 -22 -10
-17 -44 4 -24 2 -39 -4 -39 -5 0 -10 -7 -10 -15 0 -8 -7 -15 -16 -15 -10 0
-14 6 -11 14 3 8 -3 24 -13 36 -10 12 -17 27 -14 34 3 7 -7 24 -22 39 -23 23
-24 28 -10 33 15 6 15 9 -5 30 -16 17 -18 24 -8 24 8 0 10 3 4 8 -18 13 -12
72 7 78 17 5 23 24 18 49 -1 6 1 7 5 3 4 -3 15 2 26 13 23 23 30 24 23 4z
m1117 -25 c24 0 29 -4 29 -25 0 -14 7 -42 16 -63 9 -20 17 -50 18 -67 1 -18 6
-29 14 -27 6 1 12 -2 12 -7 0 -5 8 -8 17 -7 11 1 19 -10 25 -34 4 -19 5 -40 3
-47 -2 -7 5 -15 16 -18 14 -5 18 -12 14 -23 -5 -14 -4 -15 6 -4 19 18 34 15
48 -11 7 -13 38 -37 69 -53 31 -16 65 -37 76 -46 11 -10 23 -18 28 -18 4 0 8
-16 8 -35 0 -28 5 -36 23 -40 13 -4 31 -17 42 -31 10 -13 29 -36 42 -50 12
-14 26 -36 29 -49 3 -14 10 -22 15 -19 5 3 17 -12 25 -33 9 -21 20 -40 24 -43
4 -3 9 -14 11 -24 7 -35 53 -59 122 -65 5 -1 5 -6 2 -11 -4 -6 11 -18 32 -28
57 -27 110 -62 93 -62 -12 0 -13 -2 -1 -9 7 -5 10 -14 6 -20 -4 -7 -1 -26 5
-42 19 -44 4 -52 -63 -35 -65 17 -97 33 -97 47 0 24 -25 38 -92 53 -21 5 -27
12 -25 29 1 14 -6 25 -21 32 -15 7 -21 16 -18 28 3 14 -4 21 -27 30 -18 6 -32
9 -33 6 0 -2 -8 4 -18 14 -10 9 -24 17 -31 17 -8 0 -12 6 -9 13 2 7 -14 24
-38 40 -24 15 -51 42 -60 60 -26 49 -48 108 -48 126 0 10 -20 25 -55 40 -30
13 -55 30 -55 37 0 8 -7 14 -15 14 -17 0 -35 30 -35 60 0 27 -20 47 -51 52
-14 2 -25 11 -28 23 -2 11 -11 25 -21 32 -10 7 -20 23 -24 36 -3 14 -21 31
-45 43 -21 10 -37 23 -34 29 2 6 -7 23 -21 38 -20 22 -24 35 -22 82 3 63 15
78 60 70 16 -3 41 -5 57 -5z m6519 -22 c0 -4 -5 -10 -10 -13 -6 -4 0 -15 15
-27 25 -19 34 -61 15 -73 -5 -3 -14 -24 -20 -45 -8 -28 -16 -40 -29 -40 -24 0
-71 -37 -71 -56 0 -8 -6 -13 -12 -11 -7 1 -14 -8 -16 -20 -2 -13 -9 -23 -17
-23 -8 0 -11 -7 -8 -20 3 -11 12 -20 19 -20 16 0 19 -16 4 -25 -5 -3 -7 -12
-4 -19 3 -7 -2 -19 -11 -26 -8 -7 -15 -21 -15 -32 0 -13 -13 -25 -40 -37 -23
-10 -48 -27 -56 -37 -9 -10 -12 -13 -8 -5 5 11 2 13 -15 8 -20 -5 -22 -3 -15
26 l7 32 -27 -32 c-14 -17 -26 -35 -26 -41 0 -5 -17 -22 -37 -38 -21 -16 -44
-34 -51 -41 -16 -16 -42 -17 -42 -3 0 6 6 13 13 15 6 3 13 19 13 36 1 17 7 34
13 38 7 5 14 25 17 45 2 20 9 43 14 49 49 60 60 77 60 91 0 17 59 79 90 96 21
11 35 -2 26 -25 -7 -19 1 -19 20 -1 8 8 14 26 14 41 0 14 7 28 15 31 8 3 17
16 21 27 4 12 15 33 25 46 11 13 19 32 19 42 0 10 10 29 23 41 13 13 21 30 19
37 -8 23 26 42 49 28 10 -6 19 -15 19 -19z m-7529 2 c26 -14 24 -35 -3 -37
-13 0 -17 1 -10 4 17 7 15 23 -3 23 -8 0 -15 -9 -15 -21 0 -11 -4 -18 -8 -15
-7 4 -8 37 -3 54 2 5 24 1 42 -8z m-51 -20 c0 -5 -4 -10 -10 -10 -5 0 -10 5
-10 10 0 6 5 10 10 10 6 0 10 -4 10 -10z m14191 -37 c5 -14 7 -33 4 -41 -9
-23 -35 6 -35 39 0 36 17 38 31 2z m-721 -24 c13 -49 8 -69 -19 -69 -15 0 -23
11 -32 39 -14 47 -7 71 20 71 15 0 23 -10 31 -41z m-2773 -41 c-3 -8 -6 -5 -6
6 -1 11 2 17 5 13 3 -3 4 -12 1 -19z m3563 -23 c0 -31 -16 -41 -29 -18 -6 11
-6 24 0 36 13 23 29 13 29 -18z m-909 -64 c0 -3 3 -18 5 -33 3 -16 0 -28 -5
-28 -14 0 -39 52 -34 67 4 12 32 7 34 -6z m999 -112 c0 -15 -4 -30 -9 -33 -12
-8 -21 18 -21 56 0 26 2 29 15 18 8 -7 15 -25 15 -41z m80 -122 c0 -40 -17
-24 -26 23 -7 32 -6 34 9 21 9 -7 17 -27 17 -44z m-14250 -87 c0 -11 -4 -20
-9 -20 -6 0 -9 9 -8 20 1 11 5 20 9 20 4 0 8 -9 8 -20z m14335 -30 c3 -5 -1
-10 -9 -10 -8 0 -18 5 -21 10 -3 6 1 10 9 10 8 0 18 -4 21 -10z m-4336 -72 c9
-23 -2 -48 -20 -48 -5 0 -14 12 -20 27 -7 20 -6 28 3 35 20 12 28 10 37 -14z
m-59 -130 c0 -4 -4 -8 -9 -8 -6 0 -12 4 -15 8 -3 5 1 9 9 9 8 0 15 -4 15 -9z
m-40 -8 c0 -5 -7 -7 -15 -4 -8 4 -15 8 -15 10 0 2 7 4 15 4 8 0 15 -4 15 -10z
m-9823 -36 c-3 -3 -12 -4 -19 -1 -8 3 -5 6 6 6 11 1 17 -2 13 -5z m1693 -244
c-12 -23 -19 -24 -40 -9 -12 9 -11 10 7 6 13 -3 24 1 27 9 3 8 8 14 11 14 3 0
1 -9 -5 -20z m84 -93 c14 -8 23 -16 21 -19 -10 -9 -68 7 -73 20 -5 16 19 15
52 -1z m7916 -11 c0 -3 -4 -8 -10 -11 -5 -3 -10 -1 -10 4 0 6 5 11 10 11 6 0
10 -2 10 -4z m4982 -48 c-9 -9 -12 -7 -12 12 0 19 3 21 12 12 9 -9 9 -15 0
-24z m-15702 -9 c0 -5 7 -9 15 -9 8 0 36 -10 60 -21 35 -17 44 -26 40 -39 -4
-12 1 -22 12 -29 17 -10 17 -10 1 -11 -14 0 -18 -9 -19 -35 -2 -48 -3 -52 -13
-62 -5 -4 -6 -3 -2 4 3 6 2 14 -3 17 -19 12 -87 -26 -94 -51 -1 -4 -13 -8 -27
-8 -18 0 -26 7 -30 25 -3 14 -11 25 -17 26 -45 4 -44 3 -31 27 7 12 12 25 13
29 0 3 3 10 8 14 4 4 7 17 7 28 0 17 2 18 10 6 8 -12 10 -9 10 13 0 16 7 30
16 34 8 3 14 15 13 27 0 11 -1 24 0 28 1 10 31 -2 31 -13z m230 -139 c11 -11
34 -23 51 -27 17 -3 42 -21 59 -41 22 -26 33 -33 41 -25 7 7 23 8 47 2 20 -4
40 -6 44 -3 4 3 8 0 8 -7 0 -8 4 -8 13 -2 13 11 87 5 87 -7 0 -13 54 -26 128
-31 24 -1 34 -8 38 -25 6 -24 34 -42 34 -21 0 9 2 9 8 -1 6 -8 22 -11 44 -8
30 4 37 0 47 -20 6 -13 18 -24 26 -24 8 0 21 -12 27 -26 9 -18 17 -24 31 -20
15 4 17 2 8 -7 -16 -16 -14 -32 3 -18 11 9 15 8 21 -6 5 -10 7 -21 7 -25 -1
-5 9 -8 23 -8 14 0 25 -6 25 -12 0 -9 3 -8 10 2 6 9 5 17 -3 22 -7 5 0 7 16 6
15 -1 27 -6 27 -10 0 -4 7 -8 15 -8 13 0 14 -4 5 -20 -6 -12 -21 -20 -36 -20
-14 0 -23 -4 -19 -9 7 -12 54 -4 74 12 12 9 13 9 7 -1 -5 -9 0 -12 21 -11 29
2 91 -9 108 -19 6 -4 16 -7 23 -8 8 -2 22 -10 32 -19 12 -10 31 -16 53 -14 37
4 89 -31 101 -67 5 -17 80 -59 98 -56 4 1 10 -7 13 -18 4 -11 10 -18 15 -15 5
3 17 -9 26 -27 9 -18 22 -36 28 -40 6 -4 7 -8 3 -8 -19 0 18 -43 49 -56 37
-16 44 -31 17 -41 -10 -3 -31 -15 -46 -26 -15 -10 -42 -23 -60 -27 -18 -5 -51
-14 -75 -20 -30 -8 -46 -18 -52 -34 -7 -20 -17 -25 -57 -27 -82 -7 -178 4
-175 19 1 8 -2 11 -7 8 -5 -4 -12 -2 -16 4 -10 17 -32 11 -38 -10 -6 -23 -45
-27 -53 -6 -3 8 -12 12 -19 10 -7 -3 -25 2 -39 11 -14 9 -29 14 -34 11 -11 -7
-64 29 -55 37 3 4 -1 7 -11 7 -9 0 -19 6 -22 14 -6 16 -79 58 -87 50 -3 -3 -8
4 -12 15 -3 12 -13 21 -21 21 -8 0 -14 7 -14 15 0 10 -11 15 -35 15 -25 0 -41
7 -57 25 -12 14 -26 25 -32 25 -15 0 -56 41 -56 56 0 7 -18 18 -40 24 -21 6
-42 15 -45 20 -3 6 -20 10 -37 10 -23 0 -29 4 -24 15 6 16 1 19 -44 29 -14 3
-35 14 -47 26 -12 11 -27 20 -33 20 -5 0 -10 5 -10 10 0 6 -12 10 -27 11 -16
0 -64 8 -108 17 -72 15 -80 19 -77 39 3 18 -3 22 -30 25 -20 2 -32 8 -30 16 1
6 -2 12 -8 12 -5 0 -10 5 -10 10 0 6 11 10 25 10 14 0 25 5 25 11 0 6 -7 8
-16 5 -8 -3 -13 -2 -10 3 3 4 -23 15 -57 23 -49 11 -63 19 -65 35 -3 21 1 24
62 38 15 3 35 12 42 20 16 16 19 29 4 20 -5 -3 -10 3 -10 14 0 12 6 21 13 22
9 0 9 2 0 6 -16 6 6 43 25 43 7 0 11 4 7 9 -3 5 -1 12 5 16 14 9 13 33 -2 38
-7 2 -5 3 4 2 10 -2 21 1 24 6 9 16 43 10 64 -11z m-260 -174 c0 -30 -2 -33
-22 -28 -12 3 -17 7 -10 10 6 2 12 15 12 28 0 13 5 24 10 24 6 0 10 -15 10
-34z m10515 -36 c3 -5 1 -10 -4 -10 -6 0 -11 5 -11 10 0 6 2 10 4 10 3 0 8 -4
11 -10z m-6092 -334 c17 -13 16 -14 -2 -19 -21 -5 -46 15 -34 26 9 10 15 8 36
-7z m5843 -20 c10 -55 -13 -77 -34 -31 -8 17 -8 25 -1 25 6 0 7 5 4 10 -3 6
-3 15 0 20 12 19 24 10 31 -24z m-2944 -154 c5 -30 3 -40 -14 -55 -11 -9 -28
-15 -37 -13 -9 3 -36 8 -59 11 -41 7 -43 6 -33 -13 6 -10 7 -22 4 -26 -3 -3 0
-6 8 -6 11 0 11 -2 -1 -10 -21 -14 -33 -12 -27 4 3 7 -3 20 -14 29 -10 9 -19
28 -19 41 0 13 -3 32 -6 41 -4 9 -2 15 4 13 5 -2 24 8 42 21 l32 23 -31 15
c-36 18 -40 36 -9 50 18 8 32 2 87 -39 55 -41 67 -56 73 -86z m-2722 -42 c0
-5 -7 -10 -16 -10 -8 0 -12 5 -9 10 3 6 10 10 16 10 5 0 9 -4 9 -10z m11358
-77 c-2 -20 -8 -38 -13 -40 -12 -4 -31 72 -27 105 l3 23 20 -25 c14 -18 19
-37 17 -63z m-8558 8 c0 -27 -13 -33 -45 -21 -22 8 -24 12 -13 25 20 22 58 19
58 -4z m-4760 -101 c0 -5 -4 -10 -10 -10 -5 0 -10 5 -10 10 0 6 5 10 10 10 6
0 10 -4 10 -10z m-71 -7 c-4 -24 2 -56 9 -47 4 6 29 14 56 18 28 3 53 12 58
19 6 9 8 9 8 0 0 -7 10 -12 23 -10 17 1 22 -3 21 -20 0 -12 3 -20 7 -17 5 2
13 -4 18 -15 6 -11 20 -23 31 -26 11 -3 20 -12 20 -19 0 -8 7 -19 15 -26 8 -7
14 -27 13 -47 -1 -23 4 -38 15 -44 10 -6 14 -19 12 -39 -3 -19 0 -30 8 -30 8
0 8 -3 1 -8 -11 -8 -44 -74 -44 -89 0 -4 37 58 81 140 l81 147 1179 -2 1179
-3 101 -210 c55 -115 105 -220 110 -232 l8 -23 50 31 c27 17 64 34 82 39 19 4
57 17 84 28 130 53 199 76 300 100 102 25 110 29 107 50 -2 16 2 22 17 22 11
0 23 -5 27 -11 7 -12 226 -5 259 7 8 3 38 51 67 105 l51 99 1178 0 c931 0
1179 -3 1186 -12 4 -7 97 -202 205 -432 l198 -419 -103 -196 c-814 -1547
-1615 -3065 -1634 -3098 l-24 -43 -1305 0 -1306 0 6 -52 c8 -79 30 -148 47
-148 5 0 15 -11 21 -25 6 -14 16 -25 21 -25 5 0 15 -7 21 -15 6 -8 20 -16 31
-18 11 -2 27 -6 35 -9 102 -36 249 -61 237 -41 -4 7 76 11 238 12 236 1 244 1
250 -19 8 -25 35 -26 35 -1 0 16 5 18 40 14 22 -3 45 -1 52 4 15 12 410 15
403 3 -6 -9 44 -20 92 -20 35 0 80 -31 69 -48 -4 -6 2 -8 14 -5 11 3 20 0 20
-6 0 -12 21 -11 31 2 11 15 48 16 60 1 6 -8 8 -14 3 -15 -5 0 7 -6 26 -13 29
-10 38 -10 53 3 12 10 14 17 6 22 -6 4 10 5 36 4 26 -2 52 -8 58 -14 7 -7 15
-7 25 2 13 10 14 6 10 -26 -2 -20 -1 -37 3 -37 4 0 5 -9 2 -20 -5 -19 0 -20
190 -20 120 0 198 4 202 10 4 6 -11 11 -37 12 -24 0 -47 2 -53 3 -5 2 -20 3
-33 4 -13 0 -21 5 -17 10 3 5 25 8 50 7 25 -2 45 0 45 5 0 5 4 9 10 9 5 0 7
-7 4 -15 -4 -9 0 -15 10 -15 9 0 16 5 16 10 0 6 11 10 25 10 34 0 53 19 47 46
-6 32 62 99 110 108 21 4 50 19 65 34 57 54 84 72 108 72 14 0 25 5 25 11 0 5
5 7 10 4 6 -3 10 -1 10 5 0 7 7 10 15 7 8 -4 17 -2 20 3 4 6 20 -1 38 -14 31
-24 110 -52 134 -47 6 1 14 -3 18 -9 3 -5 12 -10 18 -10 7 0 6 4 -3 10 -8 5
-10 10 -4 10 5 0 15 -5 22 -12 7 -7 12 -8 12 -2 0 5 4 3 9 -4 4 -8 27 -16 50
-19 25 -3 41 -11 41 -19 0 -8 6 -11 14 -8 16 6 31 -4 77 -51 25 -25 32 -28 48
-18 14 9 23 9 37 -1 31 -21 221 -20 268 1 30 13 40 15 44 5 2 -6 17 -12 33
-12 18 0 28 4 24 10 -3 6 4 10 17 10 13 0 28 4 34 10 21 21 319 33 390 16 15
-4 24 -14 24 -25 0 -15 28 -39 34 -29 1 2 6 14 12 27 9 22 15 23 101 25 50 0
87 -2 82 -5 -11 -6 899 -1 949 5 36 5 36 17 2 -116 l-18 -68 488 -2 487 -3
-371 -702 -371 -702 -291 -3 -291 -3 203 -730 c112 -401 204 -731 204 -732 0
-2 -130 -3 -289 -3 l-289 0 -11 33 c-10 30 -205 729 -230 825 l-12 42 -452 0
-452 0 -240 -450 -240 -449 -297 -1 c-164 0 -298 2 -298 5 0 2 296 566 658
1252 362 686 693 1313 735 1393 l76 145 -117 0 c-64 0 -122 3 -127 7 -13 8 -7
19 -850 -1571 l-650 -1226 -653 -3 -652 -2 0 282 c0 155 -3 278 -7 274 -5 -4
-73 -130 -153 -279 l-145 -272 -312 -3 -311 -2 199 376 c110 207 198 378 197
379 -22 15 -93 45 -105 45 -9 0 -26 8 -37 18 -12 10 -37 25 -56 32 -33 13 -50
23 -120 70 -16 11 -33 20 -37 20 -4 0 -23 11 -42 24 -20 13 -75 48 -122 79
-48 31 -100 70 -117 87 -17 16 -34 30 -37 30 -4 0 -24 14 -44 31 -20 17 -61
52 -91 77 -86 73 -200 183 -270 261 -19 22 -47 53 -61 68 -15 16 -34 44 -43
61 -15 29 -15 32 -1 32 9 0 14 4 11 8 -10 17 49 97 129 175 39 38 111 86 137
91 7 2 24 8 38 13 35 15 169 35 189 28 9 -2 30 -7 46 -9 17 -2 45 -9 63 -14
17 -6 32 -8 32 -6 0 3 15 -6 33 -20 19 -15 38 -26 44 -26 11 0 67 -60 56 -60
-5 0 -3 -4 3 -8 6 -4 26 -40 43 -81 86 -202 155 -271 319 -316 38 -11 67 -25
73 -36 5 -11 15 -19 22 -19 7 -1 23 -18 36 -38 20 -32 22 -42 14 -75 -8 -30
-7 -41 7 -57 12 -14 18 -39 19 -82 1 -34 3 -64 6 -66 3 -3 1 -10 -4 -16 -6 -7
-12 -23 -15 -38 -2 -14 -9 -35 -15 -46 -13 -25 -14 -32 -2 -32 4 0 51 80 104
178 161 300 672 1264 772 1456 l94 181 -80 -3 c-44 -2 -88 0 -97 4 -32 14 -74
15 -66 1 6 -9 5 -9 -7 0 -15 12 -4 33 -419 -749 l-142 -268 -294 0 c-212 0
-294 3 -294 11 0 7 8 26 19 43 27 44 251 465 251 471 0 3 -228 4 -506 3 l-506
-3 -132 -250 c-73 -137 -270 -511 -439 -831 -168 -319 -309 -588 -313 -597 -6
-16 51 -17 795 -19 l800 -3 -152 -290 -152 -290 -811 -3 -811 -2 -141 290
c-78 159 -142 294 -142 300 0 5 206 400 459 877 461 874 551 1046 551 1060 0
5 -9 -7 -20 -24 -11 -18 -24 -33 -30 -33 -5 0 -10 -7 -10 -15 0 -9 -7 -18 -15
-21 -8 -4 -15 -14 -15 -23 -1 -19 -60 46 -60 66 0 6 -20 55 -45 107 -25 53
-45 100 -45 105 0 4 -22 75 -49 157 -27 82 -53 170 -56 195 l-7 46 79 7 c43 4
106 9 140 11 75 6 86 8 93 17 3 4 22 10 41 12 78 10 241 134 294 224 11 18 22
32 26 32 4 0 12 12 18 28 6 15 15 34 21 42 32 48 110 195 110 207 0 8 5 11 10
8 9 -5 15 15 11 38 0 4 4 7 9 7 6 0 10 9 10 19 0 11 5 23 11 26 6 4 8 13 5 21
-3 7 -1 16 3 19 12 7 24 112 15 127 -5 7 -9 27 -10 44 0 17 -10 41 -21 53
l-20 22 -15 -23 c-8 -13 -89 -161 -179 -330 l-163 -308 -1186 0 -1186 0 -198
418 c-109 229 -200 424 -202 432 -2 8 200 400 449 870 l453 855 432 3 c269 1
432 -1 432 -7 0 -6 -9 -25 -19 -43 -14 -25 -835 -1559 -883 -1650 -8 -17 27
-18 667 -18 532 0 676 3 679 13 2 6 9 46 15 87 6 41 19 116 28 166 10 56 14
116 10 153 -4 48 -2 61 9 61 7 0 17 12 20 28 4 15 13 39 21 54 l13 28 399 0
c375 0 399 -2 415 -19 15 -17 22 -17 80 -5 64 13 103 13 124 0 7 -4 17 -4 22
-1 6 3 10 1 10 -4 0 -13 37 -15 42 -2 2 5 23 11 48 14 110 12 236 58 246 90
11 34 85 108 103 103 18 -6 72 39 92 76 13 22 15 28 18 46 0 5 12 14 25 20 16
7 29 24 35 49 6 21 20 46 31 55 11 10 20 24 20 32 0 7 6 19 14 25 8 7 24 31
36 54 12 23 33 51 46 62 33 28 31 47 -4 44 -15 -2 -33 1 -41 5 -10 6 -12 5 -7
-2 4 -7 2 -12 -3 -12 -16 0 -13 15 7 32 11 11 30 15 53 12 27 -3 38 0 43 12 4
10 12 14 23 10 10 -4 14 -4 11 0 -13 13 13 44 36 44 13 0 29 7 36 15 7 8 21
15 31 15 10 0 22 7 27 17 8 14 15 11 49 -25 22 -23 46 -42 53 -42 7 0 10 -7 6
-15 -3 -9 3 -23 14 -32 11 -10 20 -21 20 -26 0 -4 12 -20 28 -35 31 -32 54
-78 71 -139 8 -29 21 -48 41 -60 17 -10 36 -30 43 -45 6 -16 15 -28 19 -28 5
0 8 -6 8 -12 0 -18 45 -69 54 -61 3 3 6 -1 6 -10 0 -10 5 -17 12 -17 6 0 8 -3
5 -7 -4 -3 4 -21 18 -39 14 -18 25 -37 25 -41 0 -5 8 -18 19 -29 49 -51 89
-77 178 -118 78 -34 115 -45 183 -51 136 -13 190 -13 269 0 52 9 93 10 139 4
36 -5 67 -7 70 -5 2 3 19 -1 37 -8 26 -11 38 -11 71 0 52 18 112 18 130 -1 9
-8 24 -15 34 -15 10 0 21 -7 24 -15 3 -9 11 -15 18 -14 7 1 18 1 24 0 15 -1
69 -80 61 -87 -3 -4 3 -14 14 -23 20 -16 19 -17 -52 -33 -41 -9 -121 -21 -179
-28 -58 -6 -139 -17 -180 -25 -41 -8 -129 -19 -195 -25 -177 -16 -343 -38
-405 -55 -30 -8 -125 -18 -210 -21 -85 -3 -177 -12 -204 -20 -27 -8 -70 -14
-94 -14 -24 0 -83 -7 -131 -14 -47 -8 -162 -24 -256 -36 -93 -11 -195 -25
-225 -30 -95 -16 -269 -40 -415 -55 -77 -9 -171 -22 -210 -30 -38 -8 -80 -15
-92 -15 -15 0 -28 -10 -38 -31 -9 -17 -15 -32 -13 -34 4 -3 328 40 413 55 64
12 164 24 310 40 50 5 144 16 210 25 66 8 163 19 215 25 52 5 118 15 146 20
28 6 73 10 100 8 60 -2 238 29 278 49 24 12 33 13 53 2 21 -11 32 -11 73 4 26
9 76 17 111 17 70 0 190 13 314 35 44 8 112 17 150 20 39 3 113 13 165 20 176
26 362 46 369 40 3 -4 -1 -12 -10 -18 -8 -7 -26 -38 -39 -71 -13 -32 -40 -76
-61 -97 -21 -22 -35 -39 -32 -39 4 0 2 -5 -4 -11 -7 -7 -26 -6 -64 5 -71 21
-134 20 -210 -4 -116 -36 -106 -40 106 -40 l200 0 63 118 c34 64 82 153 105
197 72 132 498 937 592 1118 48 92 82 167 77 167 -5 0 -12 -7 -16 -15 -3 -8
-12 -15 -20 -15 -8 0 -19 -6 -23 -13 -17 -27 -55 -46 -74 -36 -13 6 -20 5 -26
-4 -14 -22 -103 -37 -133 -23 -14 7 -39 16 -56 19 -30 6 -32 4 -38 -31 -3 -20
-6 -169 -6 -329 l0 -293 -729 0 -730 0 -109 213 c-60 116 -159 309 -220 427
l-111 215 137 260 c287 542 278 523 241 490 -63 -58 -67 -63 -61 -71 4 -4 2
-4 -4 -1 -7 4 -23 -3 -38 -14 -14 -11 -41 -21 -59 -21 -84 -1 -90 1 -134 48
-24 26 -43 53 -43 60 0 7 -10 22 -22 34 -12 11 -18 20 -14 20 5 0 3 6 -3 14
-8 10 -9 16 -1 21 10 6 -35 75 -51 75 -4 0 8 -34 27 -76 l36 -76 -31 -57 c-17
-31 -209 -394 -428 -808 l-398 -752 -947 -1 -948 0 0 430 0 430 554 0 555 0
38 56 c21 31 61 83 88 114 28 32 82 93 120 138 89 101 105 110 134 72 11 -16
21 -34 21 -40 0 -5 4 -10 9 -10 16 0 23 -76 12 -135 -11 -56 -47 -126 -92
-173 l-21 -23 32 3 c31 3 37 12 227 363 108 198 198 366 200 373 4 9 -235 12
-1176 12 -650 0 -1181 4 -1181 8 0 5 35 73 78 153 149 275 215 404 195 384
-11 -11 -19 -22 -18 -25 7 -12 -33 -53 -44 -46 -6 4 -9 12 -5 17 6 10 -63 79
-78 79 -4 0 -8 6 -8 13 0 6 -15 29 -34 50 -18 21 -39 58 -46 83 -7 25 -22 52
-34 62 -17 13 -21 28 -21 69 0 28 3 54 7 58 4 4 4 13 1 21 -3 8 0 14 6 14 6 0
11 11 11 25 0 14 5 25 10 25 6 0 9 -3 9 -7z m-624 -547 l204 -428 -427 -807
-427 -806 -947 -3 -948 -2 0 430 0 430 743 0 743 0 18 38 c10 20 98 186 197
369 98 182 179 334 179 337 0 3 -531 6 -1181 6 -1121 0 -1181 1 -1175 18 4 9
109 205 233 435 l226 417 1179 -2 1178 -3 205 -429z m4335 314 c0 -12 -28 -25
-36 -17 -9 9 6 27 22 27 8 0 14 -5 14 -10z m10188 -967 c6 -21 19 -65 28 -98
9 -33 19 -64 24 -70 4 -5 10 -42 12 -82 4 -60 11 -81 39 -124 42 -65 54 -166
24 -199 -19 -21 -45 -27 -45 -10 0 20 -15 9 -38 -26 -18 -28 -21 -41 -14 -62
10 -31 -4 -85 -22 -79 -40 15 -98 -64 -110 -152 -7 -50 -16 -67 -16 -29 0 14
-6 28 -13 31 -11 4 -31 38 -67 117 -4 8 -23 16 -43 18 -28 2 -38 -1 -47 -17
-13 -26 -32 -27 -54 -2 -24 26 -81 32 -147 17 -34 -8 -62 -10 -70 -5 -13 8 -6
13 14 10 4 0 7 3 7 8 0 5 12 12 26 15 18 5 24 11 19 25 -3 12 3 22 20 31 14 7
25 17 25 22 0 4 13 20 28 35 15 16 33 40 40 56 6 15 16 27 21 27 10 0 24 38
21 59 -1 7 3 10 9 7 10 -7 34 27 25 36 -2 3 8 13 23 23 37 25 93 80 93 94 0 6
9 15 21 21 18 10 20 19 17 61 -2 40 0 50 15 55 9 3 17 12 17 20 0 8 7 17 15
20 8 4 15 18 15 34 0 16 8 36 18 46 9 10 16 18 14 18 -2 1 0 9 3 18 4 10 11
15 16 12 5 -3 9 9 9 25 0 42 14 39 28 -6z m-13897 5 c22 -28 24 -57 4 -64 -9
-4 -14 -17 -13 -34 2 -30 -16 -60 -38 -60 -7 0 -14 -10 -16 -22 -2 -14 -9 -22
-18 -19 -8 2 -34 3 -57 3 -44 0 -51 6 -32 25 8 8 0 14 -32 20 -39 8 -44 12
-47 38 -4 29 -3 29 15 13 25 -23 65 -27 70 -8 4 13 3 13 -7 0 -9 -11 -13 -12
-17 -2 -2 6 -10 9 -15 6 -7 -4 -8 -2 -4 4 4 7 14 12 22 12 8 0 24 9 36 20 12
11 30 20 39 20 10 0 23 8 28 18 9 15 12 15 21 2 8 -12 10 -9 10 12 0 22 8 32
28 37 2 1 12 -9 23 -21z m-275 -118 c0 -11 -4 -20 -8 -20 -4 0 -8 9 -8 20 0
11 4 20 8 20 4 0 8 -9 8 -20z m784 11 c0 11 2 11 10 -1 6 -10 5 -17 -6 -23
-18 -10 -34 -1 -34 20 0 13 3 13 15 3 12 -10 15 -10 15 1z m-884 -75 c11 -11
11 -17 2 -22 -6 -4 -14 -2 -16 4 -2 7 -8 10 -13 7 -5 -4 -6 1 -3 9 8 20 12 20
30 2z m-1558 -115 c-4 -78 -13 -95 -34 -67 -18 25 -18 36 1 36 8 0 15 7 15 16
0 8 -4 13 -9 9 -6 -3 -6 6 -1 25 5 16 6 30 4 30 -3 0 -2 5 1 10 3 6 11 10 17
10 6 0 9 -25 6 -69z m-1258 -248 c0 -5 -205 -390 -455 -858 l-454 -850 1184
-5 1184 -5 -227 -427 -227 -428 -1185 0 -1185 0 -179 378 c-99 207 -191 400
-204 428 l-25 51 433 819 c238 451 443 838 457 862 l24 42 429 0 c237 0 430
-3 430 -7z m16613 -345 c15 -23 -6 -68 -33 -68 -20 0 -40 33 -40 65 0 27 57
30 73 3z m-4218 -316 c20 -14 40 -65 40 -104 0 -57 -32 -69 -77 -30 -19 16
-18 48 1 95 6 16 11 33 11 38 0 11 11 12 25 1z m465 -362 c0 -5 -4 -10 -10
-10 -5 0 -10 5 -10 10 0 6 5 10 10 10 6 0 10 -4 10 -10z m-9530 -85 c-5 -14
-7 -25 -4 -25 4 0 2 -6 -4 -12 -6 -7 -10 -17 -9 -23 1 -5 -13 -11 -30 -12 -31
-1 -32 0 -21 20 11 22 63 77 73 77 2 0 0 -11 -5 -25z m-1630 -91 c17 -17 20
-24 10 -24 -8 -1 0 -7 18 -15 36 -16 43 -48 15 -63 -21 -11 -140 47 -135 66 1
7 -5 12 -13 12 -8 0 -15 7 -15 16 0 9 -9 18 -20 21 -43 11 -5 24 54 18 45 -5
67 -13 86 -31z m10594 6 c13 5 29 4 37 -1 8 -5 10 -9 4 -9 -5 0 -4 -4 4 -9 21
-14 5 -41 -24 -41 -15 0 -24 -4 -20 -9 3 -5 1 -12 -5 -16 -5 -3 -10 -1 -10 6
0 7 -11 -1 -25 -17 -14 -16 -25 -32 -25 -36 0 -5 -7 -8 -15 -8 -8 0 -15 -5
-15 -11 0 -6 -9 -9 -20 -6 -11 3 -20 1 -20 -4 0 -5 -11 -9 -25 -9 -15 0 -25
-6 -25 -14 0 -8 -12 -17 -26 -20 -18 -5 -25 -12 -22 -24 9 -34 -18 -45 -85
-34 -78 13 -245 9 -272 -5 -24 -13 -83 -23 -159 -28 -49 -3 -56 -1 -56 15 0
21 74 100 93 100 7 0 21 6 32 14 12 8 41 13 67 12 39 -1 52 3 72 25 34 36 186
74 201 50 4 -7 22 0 50 19 24 16 48 30 54 30 6 0 11 4 11 8 0 19 67 31 128 23
53 -6 62 -5 63 8 1 13 2 13 6 -1 3 -13 9 -15 27 -8z m-9067 -57 c-5 -31 -18
-47 -27 -32 -8 12 9 49 22 49 4 0 7 -8 5 -17z m11488 -48 c29 2 44 -13 37 -37
-3 -14 -1 -19 6 -14 16 10 15 -2 -1 -19 -16 -15 -162 -30 -206 -20 -18 4 -31
13 -31 21 0 9 -5 12 -12 8 -7 -4 -5 1 4 12 9 10 16 24 15 29 -1 6 24 11 58 12
33 1 61 7 63 12 2 6 13 7 25 3 12 -4 31 -7 42 -7z m134 -75 c-12 -34 -29 -31
-29 6 0 17 5 24 19 24 18 0 19 -3 10 -30z m8 -53 c12 -12 -30 -36 -64 -37 -35
0 -48 12 -39 36 4 11 17 14 51 12 24 -3 48 -7 52 -11z m-152 -7 c3 -5 -1 -10
-10 -10 -9 0 -13 5 -10 10 3 6 8 10 10 10 2 0 7 -4 10 -10z m-60 -21 c4 -6 5
-12 3 -14 -7 -7 -48 7 -48 16 0 13 37 11 45 -2z m2493 -1226 c2 -15 -2 -23
-12 -23 -8 0 -20 -8 -25 -19 -6 -10 -22 -22 -36 -25 -14 -4 -25 -11 -25 -16 0
-6 -11 -10 -24 -10 -13 0 -29 -7 -36 -16 -8 -8 -28 -21 -47 -29 -18 -8 -33
-21 -33 -29 0 -8 -10 -21 -22 -27 -13 -6 -34 -21 -48 -33 -15 -13 -52 -28 -90
-35 -35 -7 -84 -19 -108 -28 -24 -8 -51 -11 -60 -7 -22 9 -55 5 -64 -9 -8 -13
-58 -20 -58 -9 0 4 -3 18 -7 31 -5 18 -3 22 7 16 10 -6 12 -4 6 11 -4 10 -8
23 -9 28 -2 9 96 44 127 45 13 1 17 6 13 20 -4 15 3 22 27 31 68 26 76 30 76
44 0 22 33 28 70 13 l32 -14 -23 -17 c-13 -9 -40 -16 -61 -16 -37 0 -57 -13
-38 -25 6 -4 16 -2 23 3 18 14 86 25 145 23 51 -2 57 1 53 35 -1 6 6 17 14 24
8 7 15 25 15 41 0 28 1 29 58 30 31 1 68 5 82 9 43 14 75 7 78 -17z m-368 -53
c0 -5 -5 -10 -11 -10 -5 0 -7 5 -4 10 3 6 8 10 11 10 2 0 4 -4 4 -10z m-4074
-174 c22 -2 52 -9 67 -15 16 -6 43 -12 60 -12 l32 -1 -30 -8 c-16 -4 -23 -9
-15 -10 8 -1 4 -5 -10 -9 -16 -4 -25 -14 -25 -26 0 -11 -8 -21 -19 -23 -11 -3
-16 0 -12 7 10 16 -2 48 -22 56 -9 4 -34 8 -55 10 -21 1 -40 5 -44 8 -8 9 17
38 27 32 4 -3 25 -7 46 -9z m-5341 -5 c3 -5 2 -12 -3 -15 -5 -3 -9 1 -9 9 0
17 3 19 12 6z m72 -17 c-3 -3 -12 -4 -19 -1 -8 3 -5 6 6 6 11 1 17 -2 13 -5z
m93 -14 c-19 -13 -30 -13 -30 0 0 6 10 10 23 10 18 0 19 -2 7 -10z m5406 -45
c-5 -15 4 -19 37 -16 9 1 17 -3 17 -9 0 -12 -65 -8 -77 4 -9 8 5 36 18 36 6 0
9 -7 5 -15z m179 -55 c3 -5 29 -8 58 -7 39 2 56 -2 67 -15 14 -16 75 -27 95
-17 6 3 24 4 40 4 17 -1 307 -2 646 -3 l616 -2 149 -292 c82 -160 148 -295
147 -299 -2 -4 -273 -521 -605 -1148 l-601 -1141 -774 0 -773 0 -2 284 -3 285
-150 -285 -149 -284 -313 0 -312 0 24 43 c38 69 1046 1971 1120 2112 37 72
104 198 148 280 45 83 116 215 158 295 l77 145 144 5 c79 3 136 7 128 9 -9 1
-4 7 13 13 15 5 27 14 27 19 0 12 17 12 25 -1z m-5285 -4 c0 -3 -4 -8 -10 -11
-5 -3 -10 -1 -10 4 0 6 5 11 10 11 6 0 10 -2 10 -4z m-43 -12 c-3 -3 -12 -4
-19 -1 -8 3 -5 6 6 6 11 1 17 -2 13 -5z m5585 -6 c-9 -9 -15 -9 -24 0 -9 9 -7
12 12 12 19 0 21 -3 12 -12z m-9339 -225 c-59 -115 -128 -247 -153 -295 l-45
-88 -673 -2 -674 -3 -129 -245 c-71 -135 -129 -248 -129 -252 0 -5 230 -8 511
-8 281 0 509 -3 507 -8 -1 -4 -73 -144 -158 -310 l-155 -302 -367 0 -368 0 -2
281 -3 282 -279 -534 c-153 -294 -288 -549 -298 -566 l-20 -33 617 0 c545 0
616 2 605 15 -7 8 -36 22 -65 31 -34 11 -55 24 -58 36 -3 10 -14 18 -27 18
-12 0 -36 12 -53 26 -29 25 -35 26 -107 19 -97 -8 -90 -8 -125 -1 -16 3 -37
15 -47 26 -9 11 -21 20 -26 20 -16 0 -33 27 -27 43 4 9 14 13 27 9 14 -3 19
-1 14 6 -10 16 7 15 23 0 11 -10 13 -10 7 0 -4 6 -2 12 3 12 6 0 11 -6 12 -12
0 -10 2 -10 6 0 2 6 11 12 19 12 8 0 14 -6 15 -12 0 -10 2 -10 6 0 2 6 9 12
14 12 6 0 7 -5 4 -11 -4 -6 1 -5 12 2 14 8 29 9 49 3 33 -10 191 -2 272 14 30
6 74 21 98 33 50 24 44 26 121 -47 24 -23 43 -47 43 -53 0 -6 4 -11 9 -11 6 0
3 -12 -4 -27 -14 -26 -13 -28 15 -39 16 -7 43 -26 61 -43 17 -17 40 -31 50
-31 14 0 19 -7 19 -25 0 -16 6 -25 16 -25 11 0 15 -6 11 -20 -3 -11 -1 -22 4
-25 5 -4 8 -17 7 -30 -2 -19 -8 -25 -25 -25 -28 0 -25 4 -173 -274 l-115 -216
-1117 0 -1116 0 28 53 c15 28 337 637 715 1352 378 715 708 1339 734 1387 l46
88 973 0 973 0 -108 -207z m13415 197 c-1 -5 -73 -138 -158 -294 l-155 -285
-663 -3 -663 -3 -138 -265 -138 -265 519 -5 518 -5 135 -291 135 -290 -308
-582 -307 -582 -298 0 -298 0 70 133 c39 72 178 332 309 577 l239 445 -512 3
-511 2 -153 292 -153 291 17 36 c21 45 553 1048 572 1079 l13 22 966 0 c615 0
964 -3 962 -10z m-2151 -111 c-5 -29 -57 -81 -75 -74 -8 3 -20 1 -26 -4 -7 -6
-15 -4 -23 4 -15 16 4 26 36 20 28 -5 45 18 32 43 -13 24 -5 32 31 32 23 0 27
-4 25 -21z m-2942 -173 c11 -2 34 -8 50 -15 33 -13 51 -19 63 -23 12 -3 32
-26 32 -37 0 -6 14 -11 30 -11 l31 0 -27 -47 c-15 -27 -36 -58 -47 -70 -11
-13 -17 -23 -14 -23 4 0 -6 -24 -22 -52 -16 -29 -38 -69 -49 -88 -10 -19 -26
-35 -35 -35 -8 0 -19 -4 -23 -8 -4 -4 -16 -7 -26 -7 -12 0 -26 -17 -43 -55
-22 -48 -30 -55 -55 -56 -17 -1 -36 -2 -42 -3 -8 -1 -12 9 -11 24 6 69 5 178
-2 203 -9 32 10 77 32 77 8 0 13 13 13 35 0 32 -2 35 -24 31 -14 -2 -27 1 -29
7 -3 8 -10 6 -24 -6 -19 -16 -20 -16 -36 1 -13 14 -16 29 -11 63 8 58 35 91
82 99 35 6 143 4 187 -4z m-10955 -726 c0 -25 -18 -36 -26 -16 -8 21 3 49 16
41 5 -3 10 -15 10 -25z m10450 -189 c6 -17 9 -35 5 -40 -3 -6 5 -22 19 -35
l26 -23 -20 -23 c-11 -13 -23 -34 -26 -47 -4 -13 -10 -23 -15 -23 -5 0 -9 -7
-9 -15 0 -8 -9 -15 -20 -15 -11 0 -20 4 -20 9 0 4 9 20 20 34 24 30 27 95 6
103 -15 6 -18 74 -3 74 4 0 7 7 7 15 0 25 17 17 30 -14z m-80 -51 c0 -11 -4
-20 -10 -20 -5 0 -10 9 -10 20 0 11 5 20 10 20 6 0 10 -9 10 -20z m0 -157 c0
-23 -4 -33 -9 -27 -9 8 -4 64 5 64 2 0 4 -17 4 -37z m-6720 -234 c0 -5 -4 -9
-10 -9 -5 0 -10 7 -10 16 0 8 5 12 10 9 6 -3 10 -10 10 -16z m10550 -934 l0
-295 -804 0 -804 0 161 295 161 295 643 0 643 0 0 -295z m-11605 -637 c9 -9
-47 -36 -62 -31 -7 3 -13 13 -13 23 0 15 7 18 34 16 19 -1 38 -4 41 -8z m9642
-403 c0 -8 -4 -15 -8 -15 -11 0 -20 16 -12 24 11 11 20 7 20 -9z m31 -55 c3
-33 -12 -41 -22 -12 -3 9 -9 23 -12 30 -3 7 2 12 13 12 14 0 19 -8 21 -30z
m197 -77 c9 -11 10 -26 4 -47 -13 -46 -12 -51 21 -63 24 -9 30 -17 30 -42 0
-17 -4 -31 -10 -31 -5 0 -10 6 -10 14 0 20 -30 29 -36 11 -4 -8 -11 -15 -16
-15 -7 0 -9 21 -5 60 4 33 3 60 -2 60 -5 0 -11 8 -15 18 -3 9 -9 22 -12 29 -3
6 3 13 13 16 10 3 20 5 22 6 2 0 9 -7 16 -16z m-10557 -586 c16 -19 -1 -39
-30 -35 -22 3 -24 6 -17 26 9 24 31 29 47 9z m-125 -74 c15 -9 6 -29 -27 -55
-38 -31 -51 -34 -62 -16 -4 7 -3 8 4 4 7 -4 12 -2 12 3 0 6 -9 11 -20 11 -25
0 -42 29 -26 46 22 21 87 25 119 7z m7757 -113 c0 -5 -10 -10 -22 -10 -19 0
-20 2 -8 10 19 13 30 13 30 0z m98 -55 c12 -12 -23 -25 -50 -19 -17 3 -28 1
-28 -5 0 -7 -28 -9 -83 -6 -87 5 -117 11 -117 26 0 14 264 19 278 4z m1887
-1044 c10 -17 -12 -21 -25 -6 -10 12 -10 15 3 15 9 0 18 -4 22 -9z m155 -80
c0 -3 -7 -14 -14 -24 -12 -15 -15 -15 -26 -2 -8 10 -9 15 -2 15 6 0 9 6 6 14
-4 11 0 13 15 9 12 -3 21 -8 21 -12z m-90 -11 c0 -5 -6 -10 -14 -10 -8 0 -18
5 -21 10 -3 6 3 10 14 10 12 0 21 -4 21 -10z m155 -70 c3 -5 -3 -10 -14 -10
-12 0 -21 5 -21 10 0 6 6 10 14 10 8 0 18 -4 21 -10z m118 -52 c41 -1 48 -16
17 -35 -21 -14 -32 -10 -100 28 l-35 19 40 -5 c22 -3 57 -6 78 -7z m57 -93 c0
-30 -15 -33 -30 -6 -14 27 -13 31 10 31 15 0 20 -7 20 -25z m145 -55 c-3 -5
-15 -10 -25 -10 -10 0 -22 5 -25 10 -4 6 7 10 25 10 18 0 29 -4 25 -10z m65
-6 c19 -4 27 -10 20 -14 -17 -10 -3 -30 20 -30 25 0 37 -20 13 -21 -27 -2 -47
2 -53 11 -3 4 -15 12 -27 19 -13 6 -23 18 -23 26 0 17 4 18 50 9z m-60 -74 c8
-5 12 -11 10 -14 -8 -7 -60 6 -60 15 0 12 31 11 50 -1z m304 -146 c28 -11 17
-24 -19 -24 -36 0 -48 15 -17 23 9 3 18 5 19 6 1 0 8 -2 17 -5z m-2079 -319
c0 -17 -8 -20 -52 -23 -54 -3 -65 5 -40 33 7 9 27 14 52 12 33 -2 40 -6 40
-22z m-142 -8 c4 3 7 1 7 -5 0 -18 -27 -14 -34 4 -5 13 -4 14 7 6 8 -7 17 -9
20 -5z"/>
<path d="M12392 22085 c-12 -23 -4 -55 14 -55 16 0 19 37 5 59 -7 11 -11 10
-19 -4z"/>
<path d="M10620 21751 c0 -6 5 -13 10 -16 6 -3 10 1 10 9 0 9 -4 16 -10 16 -5
0 -10 -4 -10 -9z"/>
<path d="M15288 22183 c0 -5 -2 -12 -3 -18 -2 -5 -3 -20 -4 -32 0 -13 -7 -22
-13 -20 -8 1 -14 -12 -16 -35 -3 -34 -1 -38 20 -38 27 0 48 38 48 86 0 18 5
34 12 36 17 6 0 28 -23 28 -10 0 -20 -3 -21 -7z"/>
<path d="M8847 21034 c-9 -10 15 -54 30 -54 16 0 16 1 3 34 -9 25 -21 32 -33
20z"/>
<path d="M10092 20128 c2 -5 8 -9 13 -9 5 0 11 4 13 9 1 5 -4 9 -13 9 -9 0
-14 -4 -13 -9z"/>
<path d="M10135 20040 c3 -5 8 -10 11 -10 2 0 4 5 4 10 0 6 -5 10 -11 10 -5 0
-7 -4 -4 -10z"/>
<path d="M10440 19760 c0 -13 18 -22 24 -11 3 5 -1 11 -9 15 -8 3 -15 1 -15
-4z"/>
<path d="M16238 20829 c-21 -22 -7 -26 15 -4 8 8 18 11 22 7 5 -4 5 -1 1 6 -9
16 -17 14 -38 -9z"/>
<path d="M16190 20754 c0 -8 5 -12 10 -9 6 4 8 11 5 16 -9 14 -15 11 -15 -7z"/>
<path d="M8297 19663 c-14 -13 -6 -23 18 -23 28 0 34 15 9 24 -19 7 -19 7 -27
-1z"/>
<path d="M9090 19450 c0 -6 7 -10 15 -10 8 0 15 2 15 4 0 2 -7 6 -15 10 -8 3
-15 1 -15 -4z"/>
<path d="M9125 19410 c3 -5 10 -10 16 -10 5 0 9 5 9 10 0 6 -7 10 -16 10 -8 0
-12 -4 -9 -10z"/>
<path d="M9160 19405 c0 -8 2 -15 4 -15 2 0 6 7 10 15 3 8 1 15 -4 15 -6 0
-10 -7 -10 -15z"/>
<path d="M15250 19100 c0 -5 5 -10 10 -10 6 0 10 5 10 10 0 6 -4 10 -10 10 -5
0 -10 -4 -10 -10z"/>
<path d="M14564 18509 c-10 -12 -18 -24 -18 -28 1 -3 -1 -11 -3 -18 -3 -7 -3
-17 -1 -22 1 -6 15 12 30 40 29 51 25 64 -8 28z"/>
<path d="M14200 17972 c0 -22 13 -42 27 -42 21 0 12 44 -9 48 -10 2 -18 -1
-18 -6z"/>
<path d="M14953 17522 c-106 -203 -193 -371 -193 -375 0 -4 87 -7 193 -7 164
1 189 3 174 14 -21 16 -27 41 -29 121 -1 57 18 135 33 135 4 0 10 9 14 20 9
28 90 107 128 124 40 18 122 44 162 51 87 15 435 22 540 11 98 -10 139 -18
161 -32 13 -9 29 -17 36 -18 20 -3 58 -30 58 -40 0 -5 6 -14 14 -20 7 -6 23
-40 34 -76 21 -66 24 -100 12 -100 -4 0 -6 -14 -5 -30 1 -17 -1 -33 -6 -36 -5
-3 -9 -10 -9 -17 0 -7 3 -7 9 -1 11 11 341 629 341 638 0 3 -332 6 -737 6
l-738 0 -192 -368z"/>
<path d="M13394 15221 c-18 -20 -42 -57 -55 -84 -13 -26 -27 -47 -31 -47 -4 0
-8 -6 -8 -14 0 -8 -3 -16 -7 -18 -15 -6 -77 -153 -76 -178 0 -3 -4 -16 -9 -30
-5 -15 -6 -21 0 -15 12 13 224 417 220 420 -2 1 -17 -15 -34 -34z"/>
<path d="M14634 14119 c-9 -15 12 -33 30 -26 9 4 16 13 16 22 0 17 -35 21 -46
4z"/>
<path d="M14868 14109 c0 -8 -2 -18 -2 -24 -1 -5 -5 -16 -9 -22 -6 -10 10 -13
70 -13 54 0 73 3 63 10 -8 5 -28 10 -45 10 -16 0 -37 5 -45 11 -12 9 -12 10 3
5 11 -4 17 -2 15 5 -2 6 -8 11 -13 11 -6 0 -16 4 -22 10 -9 7 -13 7 -15 -3z"/>
<path d="M15988 13932 c-13 -3 -17 -23 -23 -125 -3 -67 -5 -171 -3 -231 l3
-109 118 230 c64 127 117 232 117 234 0 3 -28 2 -63 -1 -35 -3 -79 -3 -98 0
-19 3 -41 4 -51 2z"/>
<path d="M12465 13865 c-3 -27 -5 -124 -3 -215 l3 -165 108 206 c59 113 107
210 107 215 0 5 -47 9 -105 9 l-104 0 -6 -50z"/>
<path d="M14961 13443 c-5 -10 -207 -391 -450 -846 -243 -456 -441 -830 -441
-833 0 -2 105 -4 233 -3 176 0 226 3 207 11 -14 6 -34 10 -45 9 -24 -2 -55 45
-55 83 0 22 4 26 31 26 17 0 28 4 24 10 -3 6 -1 10 5 10 7 0 9 23 6 68 -2 37
0 72 6 79 6 8 3 18 -11 32 l-21 21 42 83 c24 45 62 108 86 140 24 32 45 70 46
84 1 16 14 36 39 55 20 16 37 36 37 44 0 28 40 93 85 140 25 25 45 48 45 50 0
3 27 61 61 129 48 98 71 134 114 174 30 28 62 51 72 51 10 0 30 14 44 31 21
26 38 34 100 46 138 27 152 27 205 -1 27 -14 57 -26 67 -26 10 0 28 -11 40
-23 12 -13 32 -29 45 -36 13 -7 22 -21 22 -36 0 -13 5 -47 12 -75 9 -38 9 -59
1 -83 -46 -133 -20 -96 127 185 73 139 153 290 177 336 l45 82 -496 0 c-462 0
-496 -1 -505 -17z"/>
<path d="M17437 13438 c-8 -13 -94 -176 -192 -363 -98 -187 -189 -359 -202
-382 l-25 -43 224 0 c187 1 220 3 206 14 -10 7 -15 15 -13 18 3 3 -4 13 -15
23 -11 10 -20 29 -20 42 0 12 -4 23 -10 23 -5 0 -9 3 -8 8 1 4 -2 25 -6 48 -6
35 -2 52 23 105 52 110 141 183 269 220 101 29 292 26 292 -5 0 -7 -13 -30
-29 -52 -16 -21 -44 -60 -63 -86 -65 -92 -147 -194 -202 -252 -31 -32 -56 -61
-56 -65 0 -3 -12 -14 -27 -23 -27 -17 -18 -17 214 -18 l241 0 130 248 c71 136
167 318 212 405 l82 157 -506 0 -506 0 -13 -22z"/>
<path d="M13605 12100 c-11 -11 -45 -42 -75 -70 l-55 -50 25 -20 c14 -11 28
-20 32 -20 4 0 28 41 53 90 25 50 44 90 43 90 -2 0 -12 -9 -23 -20z"/>
<path d="M15184 12021 c-14 -16 -24 -31 -22 -33 1 -3 -5 -12 -15 -22 -9 -10
-15 -21 -12 -26 3 -4 -2 -13 -10 -20 -8 -7 -15 -18 -15 -25 0 -14 -22 -25 -51
-25 -19 0 -119 -86 -119 -102 0 -5 30 -8 66 -6 l65 3 76 143 c41 78 72 142 69
142 -3 0 -18 -13 -32 -29z"/>
<path d="M14548 11763 c6 -2 18 -2 25 0 6 3 1 5 -13 5 -14 0 -19 -2 -12 -5z"/>
<path d="M8706 17325 c4 -8 8 -15 10 -15 2 0 4 7 4 15 0 8 -4 15 -10 15 -5 0
-7 -7 -4 -15z"/>
<path d="M24468 14423 c6 -2 18 -2 25 0 6 3 1 5 -13 5 -14 0 -19 -2 -12 -5z"/>
<path d="M24128 14263 c7 -3 16 -2 19 1 4 3 -2 6 -13 5 -11 0 -14 -3 -6 -6z"/>
<path d="M20557 14044 c-4 -4 -7 -134 -7 -288 l0 -281 121 235 c124 240 146
296 123 318 -7 7 -43 11 -91 10 -43 -1 -92 2 -108 6 -17 4 -34 4 -38 0z"/>
<path d="M20541 13443 c-92 -174 -881 -1677 -881 -1679 0 -2 276 -4 614 -4
l614 0 454 842 c249 462 455 845 456 850 2 4 -278 8 -622 8 -585 0 -626 -1
-635 -17z"/>
<path d="M21032 22518 c-16 -16 -15 -26 2 -44 22 -22 54 -17 72 12 15 22 15
27 3 35 -20 13 -63 11 -77 -3z"/>
<path d="M21177 22453 c-6 -33 -3 -38 18 -30 19 8 20 57 1 57 -7 0 -16 -12
-19 -27z"/>
<path d="M20730 21989 c0 -24 23 -21 28 4 2 10 -3 17 -12 17 -10 0 -16 -9 -16
-21z"/>
<path d="M20023 21439 c-18 -7 -21 -15 -20 -58 0 -30 5 -50 11 -49 6 0 18 -2
27 -6 17 -8 69 9 69 22 0 5 -9 17 -20 27 -16 14 -17 20 -8 26 10 6 10 13 2 25
-12 20 -31 24 -61 13z"/>
<path d="M22343 21320 c-20 -31 -16 -40 18 -40 27 0 30 3 27 27 -4 34 -28 41
-45 13z"/>
<path d="M19970 21190 c0 -5 5 -10 11 -10 5 0 7 5 4 10 -3 6 -8 10 -11 10 -2
0 -4 -4 -4 -10z"/>
<path d="M21947 20863 c-4 -3 -7 -15 -7 -25 0 -16 6 -19 33 -16 24 2 33 8 35
26 3 18 -1 22 -26 22 -16 0 -32 -3 -35 -7z"/>
<path d="M21755 20781 c-6 -11 0 -34 21 -69 51 -89 79 -124 115 -143 28 -14
44 -31 55 -58 11 -27 21 -38 32 -36 9 2 19 4 22 4 12 2 9 60 -3 73 -7 7 -12
25 -10 40 3 42 -40 88 -82 88 -38 0 -60 18 -79 65 -9 22 -22 34 -40 37 -15 3
-28 2 -31 -1z"/>
<path d="M22092 20690 c10 -6 14 -18 11 -30 -6 -24 0 -25 21 -5 21 21 11 40
-22 43 -22 1 -24 0 -10 -8z"/>
<path d="M19566 20611 c-8 -12 3 -41 15 -41 5 0 9 7 9 15 0 8 0 18 1 22 1 12
-19 15 -25 4z"/>
<path d="M21761 20506 c-20 -23 -10 -60 17 -64 21 -3 23 0 20 34 -3 41 -18 53
-37 30z"/>
<path d="M21617 20436 c-3 -8 1 -17 9 -20 8 -3 14 1 14 9 0 20 -17 28 -23 11z"/>
<path d="M21410 20426 c0 -20 36 -92 50 -101 5 -3 10 -19 10 -36 0 -28 2 -29
45 -30 25 -1 51 -2 58 -3 8 -1 11 12 10 37 -3 51 -19 77 -48 77 -14 0 -33 12
-47 29 -28 35 -78 52 -78 27z"/>
<path d="M21850 20380 c0 -11 5 -20 10 -20 6 0 10 9 10 20 0 11 -4 20 -10 20
-5 0 -10 -9 -10 -20z"/>
<path d="M19103 20203 c-46 -50 -51 -64 -28 -83 17 -14 164 -42 178 -33 5 3 6
16 3 29 -8 29 -87 134 -101 134 -5 -1 -29 -22 -52 -47z"/>
<path d="M21210 20238 c-23 -6 -43 -20 -58 -44 -17 -26 -28 -33 -41 -29 -27 8
-34 -39 -10 -68 9 -13 20 -39 24 -59 6 -30 3 -38 -13 -47 -11 -6 -22 -8 -25
-5 -13 14 -45 -18 -51 -51 -4 -20 -16 -51 -26 -68 -18 -29 -18 -33 -3 -49 22
-25 29 -23 43 12 12 29 51 52 57 33 2 -5 34 6 71 24 37 18 73 31 80 28 6 -2
12 -1 12 4 0 5 18 11 40 14 65 8 73 20 68 104 -4 79 -27 125 -66 131 -13 2
-24 13 -28 27 -10 39 -34 53 -74 43z"/>
<path d="M21355 20209 c-4 -6 -2 -15 5 -19 9 -6 9 -9 -1 -12 -8 -3 -11 -8 -8
-12 9 -9 41 24 36 37 -5 16 -24 20 -32 6z"/>
<path d="M20868 19829 c-26 -14 -33 -67 -12 -90 27 -30 52 -24 60 15 3 19 3
39 0 44 -3 6 -1 12 5 14 6 2 0 9 -13 15 -15 7 -30 7 -40 2z"/>
<path d="M21117 19816 c-6 -15 1 -26 15 -26 4 0 8 9 8 20 0 23 -15 27 -23 6z"/>
<path d="M20640 19669 c0 -5 5 -8 11 -6 15 3 24 -126 11 -149 -11 -20 7 -74
24 -74 6 0 14 14 18 30 3 20 16 37 36 48 23 13 30 24 30 49 0 43 -63 111 -102
111 -16 0 -28 -4 -28 -9z"/>
<path d="M20600 19595 c-10 -12 -10 -21 -1 -41 13 -29 31 -23 31 9 0 36 -14
51 -30 32z"/>
<path d="M20405 19510 c-3 -6 -3 -19 0 -30 8 -24 -16 -28 -38 -6 -18 18 -57
10 -58 -13 -2 -36 3 -73 14 -94 20 -37 60 -87 70 -87 6 0 25 -11 43 -25 46
-36 64 -33 64 10 0 19 9 54 21 78 21 42 21 44 2 82 -12 27 -26 41 -41 43 -13
2 -28 14 -34 28 -12 25 -32 32 -43 14z"/>
<path d="M23817 19373 c-11 -22 -7 -91 6 -102 22 -18 30 2 22 54 -6 42 -19 64
-28 48z"/>
<path d="M20222 19314 c-4 -8 -6 -29 -4 -45 4 -27 8 -30 28 -25 16 4 26 2 29
-6 26 -74 24 -72 45 -53 25 23 26 51 1 64 -10 6 -20 8 -23 6 -2 -3 -15 13 -27
35 -24 43 -35 49 -49 24z"/>
<path d="M20014 19239 c3 -41 6 -78 6 -82 0 -4 20 -16 44 -27 24 -10 47 -27
50 -38 9 -27 65 -47 82 -30 6 7 14 43 17 81 l6 67 -41 26 c-23 15 -51 35 -62
45 -11 11 -25 19 -32 19 -6 0 -26 3 -43 6 l-32 7 5 -74z"/>
<path d="M19957 19113 c-31 -8 -46 -53 -40 -121 3 -35 10 -65 14 -68 12 -7 60
26 58 40 -1 6 1 23 5 39 9 29 -1 118 -12 116 -4 -1 -15 -3 -25 -6z"/>
<path d="M19563 18968 c-13 -6 -23 -16 -23 -22 0 -23 -88 -106 -111 -106 -51
0 -94 -20 -111 -50 l-17 -31 267 2 267 1 31 26 c62 53 51 152 -16 152 -47 0
-53 -12 -46 -81 7 -63 7 -63 -12 -45 -11 9 -23 28 -26 42 -4 14 -16 26 -30 30
-14 3 -32 14 -42 25 -9 10 -22 19 -27 19 -6 0 -25 11 -43 25 -18 14 -34 25
-36 24 -2 0 -13 -5 -25 -11z"/>
<path d="M23764 18662 c-22 -3 -35 -24 -54 -84 -15 -50 -32 -62 -80 -54 -24 4
-40 2 -41 -4 -1 -5 -2 -16 -3 -22 -1 -7 1 -24 4 -38 5 -17 1 -30 -11 -40 -10
-9 -30 -43 -46 -75 -20 -42 -35 -61 -50 -63 -11 -2 -29 -12 -39 -23 -9 -10
-20 -19 -24 -19 -4 0 -10 26 -14 58 -3 31 -7 62 -8 68 -1 6 -21 9 -55 6 -32
-3 -53 -1 -53 6 0 16 -49 -11 -56 -30 -3 -10 -9 -18 -13 -18 -16 0 2 -51 20
-61 11 -5 19 -15 19 -22 0 -13 105 -127 117 -127 18 1 43 29 43 48 0 26 6 30
58 38 38 6 43 4 80 -34 22 -22 42 -46 44 -53 4 -12 100 164 218 400 45 91 49
103 31 98 -12 -3 -21 0 -21 6 -1 18 -43 43 -66 39z m-120 -347 c3 -16 1 -37
-4 -45 -9 -13 -12 -12 -25 4 -15 20 -21 107 -8 120 9 8 27 -32 37 -79z"/>
<path d="M21103 18608 c-6 -7 -92 -169 -193 -360 l-182 -348 -980 -2 -979 -3
-189 -360 c-105 -198 -190 -363 -190 -367 0 -5 335 -8 744 -8 l744 0 -3 68
c-4 85 -7 98 -30 147 -10 22 -19 47 -20 55 -1 8 -3 21 -4 28 0 7 -5 11 -10 7
-18 -10 -21 13 -4 26 13 11 15 11 9 1 -7 -11 -4 -11 13 0 18 11 23 11 31 -2 7
-11 5 -16 -5 -18 -8 -2 -15 -7 -15 -12 0 -5 6 -7 14 -4 9 3 20 -3 28 -15 7
-12 19 -21 26 -21 8 0 27 -14 42 -30 22 -23 36 -30 56 -27 28 4 33 14 35 72 2
46 16 57 61 50 22 -4 44 -2 51 3 7 6 14 10 17 11 3 0 25 9 50 20 25 11 50 21
57 21 7 0 23 11 36 24 29 29 58 45 83 45 123 2 239 28 323 71 45 22 141 115
169 162 9 16 19 28 23 28 4 0 18 19 32 43 43 72 133 157 168 157 12 0 55 51
52 61 -1 4 4 13 12 19 8 7 15 19 15 26 0 8 7 14 16 14 9 0 14 6 11 13 -2 6 3
17 11 23 17 12 7 38 -10 28 -7 -5 -9 -1 -5 9 3 10 3 17 -1 17 -4 0 -5 30 -2
67 11 129 9 137 -42 193 -9 10 -24 33 -33 49 -18 35 -19 36 -32 19z"/>
<path d="M22776 18514 c-14 -27 -182 -353 -374 -724 l-349 -675 180 -3 c99 -1
182 0 185 3 4 3 -2 20 -11 38 -27 51 -32 133 -12 207 10 36 20 77 22 93 3 15
10 27 15 27 5 0 7 4 4 9 -4 5 -2 11 3 13 5 1 11 10 13 18 2 8 6 17 9 20 4 3
25 43 48 90 90 186 169 312 208 329 12 6 25 23 28 38 11 48 21 58 74 68 29 6
58 18 65 27 14 19 12 83 -3 102 -7 8 -9 29 -5 52 4 22 6 45 6 52 -1 6 -2 36
-3 65 0 28 -5 57 -9 62 -4 6 -13 28 -20 51 -7 22 -20 51 -30 64 l-18 24 -26
-50z"/>
<path d="M23050 18203 c0 -5 7 -17 15 -27 14 -19 15 -19 15 7 0 17 -5 27 -15
27 -8 0 -15 -3 -15 -7z"/>
<path d="M23567 18047 l-17 -32 20 24 c17 20 26 41 18 41 -2 0 -11 -15 -21
-33z"/>
<path d="M21290 17780 c0 -7 -7 -9 -16 -6 -8 3 -12 2 -9 -4 8 -13 32 -13 40
-1 3 5 1 12 -5 16 -5 3 -10 1 -10 -5z"/>
<path d="M23133 17214 c-15 -20 -40 -50 -55 -66 -34 -35 -34 -38 -5 -38 19 0
29 11 47 53 13 28 31 60 39 70 8 9 11 17 8 17 -3 0 -19 -16 -34 -36z"/>
<path d="M19856 17105 c-3 -8 -1 -15 4 -15 6 0 10 7 10 15 0 8 -2 15 -4 15 -2
0 -6 -7 -10 -15z"/>
<path d="M6867 13438 c-8 -13 -90 -167 -182 -343 -92 -176 -183 -348 -202
-382 l-35 -63 510 0 510 0 130 248 c71 136 166 318 212 405 l82 157 -506 0
-506 0 -13 -22z"/>
</g>
</svg>
